<?xml version="1.0" encoding="utf-8"?>
<!-- Generator: Adobe Illustrator 19.0.0, SVG Export Plug-In . SVG Version: 6.00 Build 0)  -->
<svg version="1.1" id="圖層_1" xmlns="http://www.w3.org/2000/svg" xmlns:xlink="http://www.w3.org/1999/xlink" x="0px" y="0px"
	 viewBox="-4 11 150 150" style="enable-background:new -4 11 150 150;" xml:space="preserve">
<style type="text/css">
	.st0{fill:#FFFFFF;}
</style>
<title>2</title>
<desc>Created with Sketch.</desc>
<g>
	<path class="st0" d="M65.1,46.1c0.7,2.3,2.7,4.2,5.3,4.2c3,0,5.6-2.5,5.6-5.7S73.6,39,70.4,39c-2.9,0-5.2,2.2-5.5,4.9
		c-9.5,1.2-18.4,5.7-25,12.5l1.6,1.6C47.9,51.5,56.2,47.3,65.1,46.1z M70.4,41.2c1.9,0,3.4,1.6,3.4,3.5s-1.6,3.5-3.4,3.5
		S67,46.5,67,44.7C67,42.6,68.5,41.2,70.4,41.2z"/>
	<path class="st0" d="M29.7,98l2-0.6c-1.1-3.7-1.5-7.4-1.5-11.2c0-5.3,1-10.5,3-15.4c0.4,0.1,1,0.1,1.4,0.1c2,0,3.8-1,4.8-2.7
		c1.5-2.7,0.6-6-2-7.5c-0.8-0.4-1.8-0.7-2.8-0.7c-2,0-3.8,1-4.8,2.7c-0.6,1.1-0.8,2.7-0.4,4.1c0.3,1.1,1,2.1,2,2.8
		C29.1,74.8,28,80.4,28,86C28,90,28.6,94.2,29.7,98z M31.7,63.7c0.6-1,1.7-1.7,3-1.7c0.6,0,1.1,0.1,1.7,0.4c1.5,1,2.1,3,1.3,4.7
		c-1,1.6-3.1,2.1-4.6,1.1c-0.8-0.4-1.3-1.1-1.5-2.1C31.1,65.4,31.2,64.4,31.7,63.7z"/>
	<path class="st0" d="M38.3,109.5c0.7-0.7,1.1-1.4,1.4-2.4c0.4-1.4,0.1-2.9-0.6-4.2c-1-1.7-2.8-2.9-4.8-2.9c-1,0-1.8,0.3-2.7,0.7
		c-2.5,1.4-3.4,4.9-2,7.6c1,1.7,2.8,2.9,4.8,2.9c0.7,0,1.4-0.1,2.1-0.4c5.5,7.3,13.1,12.8,21.8,15.2l0.6-2
		C50.8,121.5,43.5,116.4,38.3,109.5z M37.7,106.3c-0.3,0.9-0.8,1.6-1.6,2c-1.6,1.2-3.7,0.4-4.7-1.1c-0.8-1.6-0.3-3.7,1.3-4.7
		c0.6-0.3,1.1-0.4,1.7-0.4c1.3,0,2.4,0.7,3,1.7C37.9,104.6,38,105.5,37.7,106.3z"/>
	<path class="st0" d="M74.8,125c-0.3-0.9-0.7-1.8-1.4-2.5c-1-1-2.4-1.8-4-1.8c-3,0-5.6,2.5-5.6,5.6c0,3.1,2.4,5.7,5.4,5.7
		c2.8,0,5.1-2.2,5.4-5c9.2-1.2,17.8-5.6,24.5-12.4l-1.3-1.3C91.6,119.7,83.5,123.8,74.8,125z M69.5,130.1c-1.8,0-3.4-1.6-3.4-3.5
		c0-1.9,1.6-3.5,3.4-3.5c0.9,0,1.7,0.4,2.4,1c0.6,0.7,1,1.6,1,2.5C73,128.5,71.4,130.1,69.5,130.1z"/>
	<path class="st0" d="M102.5,61.6c-1.7,1.7-2.3,4.3-1,6.6c1,1.7,2.9,2.8,4.9,2.8c1,0,1.9-0.3,2.7-0.7c2.7-1.4,3.7-4.8,2.2-7.4
		c-1-1.7-2.9-2.8-4.9-2.8c-0.7,0-1.4,0.1-2,0.4C98.5,52.8,90,47.2,80.6,45L80,47.1C89,49.2,97.1,54.4,102.5,61.6z M104.8,62.6
		c0.6-0.3,1.1-0.4,1.7-0.4c1.1,0,2.3,0.7,2.9,1.7c0.9,1.5,0.3,3.6-1.3,4.5c-1.6,0.8-3.7,0.3-4.6-1.3
		C102.6,65.5,103.2,63.5,104.8,62.6z"/>
	<path class="st0" d="M108.5,102.2c2.3-5.2,3.5-10.8,3.5-16.6c0-3.5-0.4-7.2-1.5-10.6l-2.2,0.6c0.9,3.3,1.3,6.7,1.3,10.1
		c0,5.4-1.2,10.6-3.4,15.6c-0.4-0.1-1-0.1-1.6-0.1c-2.1,0-3.8,1-4.8,2.7c-1.6,2.6-0.7,6,1.9,7.5c0.9,0.6,1.9,0.7,2.9,0.7
		c2.1,0,3.8-1,4.8-2.7c0.7-1.3,1-2.7,0.6-4.1C110.2,104.1,109.5,103.1,108.5,102.2z M107.9,108.3c-0.9,1.6-3.2,2.1-4.8,1.1
		c-1.6-1-2.2-3-1.2-4.7c0.6-1,1.8-1.7,3.1-1.7c0.6,0,1.2,0.1,1.8,0.4c0.7,0.4,1.3,1.1,1.6,2.1C108.6,106.6,108.5,107.5,107.9,108.3z
		"/>
	<path class="st0" d="M75,113.9v0.1c1.9,0,3.3-1.3,3.7-3.1c0-0.4,0.1-0.8,0.1-1.6h2v-2.1H79c0-0.1,0.3-1.3,0.3-1.8h3.4v-2.1h-2.9
		c1.1-4.9,3-9.6,5.4-13.7c0.1-0.3,0.3-0.4,0.4-0.7c1.7-2.8,2.4-6.1,2.3-9.5c-0.4-8.8-7.4-15.8-16.3-16.4C61.4,62.3,53,70.4,53,80.4
		c0,2,0.3,3.8,1,5.8l1.6,3c0.3,0.4,0.4,0.7,0.7,1.1l0.1,0.1c2.3,4,3.9,8.3,5,12.8h-3.1v2.1h3.6c0.1,0.4,0.1,1.1,0.3,1.8h-1.9v2.1
		h2.1v0.7l0.1,1.1v0.3c0.6,1.4,2,2.4,3.6,2.4H75z M63.1,103.1c-0.9-4.9-2.7-9.6-5.1-14c-0.3-0.4-0.4-0.8-0.7-1.1l-1.4-2.8
		C55.3,83.7,55,82,55,80.1c0-8.8,7.4-15.8,16.4-15.2c7.7,0.6,13.9,6.6,14.3,14.4c0.1,3-0.6,5.8-1.9,8.2l-0.1,0.1
		c-0.1,0.3-0.3,0.4-0.4,0.7c-2.6,4.4-4.6,9.5-5.9,14.8H63.1z M63.9,105.4h13.3c-0.1,0.4-0.3,1.6-0.3,1.8H64.1
		C64,106.5,63.9,106,63.9,105.4z M64.4,110.9l-0.1-1v-0.6h12.4c0,0.6-0.1,1-0.1,1.3c-0.1,0.7-0.9,1.3-1.6,1.3h-9
		C65.3,111.9,64.7,111.5,64.4,110.9z"/>
	<polygon class="st0" points="83,95.6 85.4,98 87,96.4 84.6,94 	"/>
	<polygon class="st0" points="92.4,88 93,85.9 89.6,85 89,87.1 	"/>
	<polygon class="st0" points="92.4,74 89,74.8 89.6,77 93,76.2 	"/>
	<polygon class="st0" points="84.6,68 87,65.6 85.4,64 83,66.4 	"/>
	<polygon class="st0" points="74,61.4 76.1,62 77,58.6 74.9,58 	"/>
	<polygon class="st0" points="63.8,62 66,61.4 65.2,58 63,58.6 	"/>
	<polygon class="st0" points="55.4,67 57,65.4 54.6,63 53,64.6 	"/>
	<polygon class="st0" points="47.6,73 47,75.1 50.4,76 51,73.9 	"/>
	<polygon class="st0" points="47.6,88 51,87.2 50.4,85 47,85.8 	"/>
	<polygon class="st0" points="55.4,94 53,96.4 54.6,98 57,95.6 	"/>
</g>
</svg>
