<?xml version="1.0" encoding="utf-8"?>
<!-- Generator: Adobe Illustrator 19.0.0, SVG Export Plug-In . SVG Version: 6.00 Build 0)  -->
<svg version="1.1" id="圖層_1" xmlns="http://www.w3.org/2000/svg" xmlns:xlink="http://www.w3.org/1999/xlink" x="0px" y="0px"
	 viewBox="-4 11 150 150" style="enable-background:new -4 11 150 150;" xml:space="preserve">
<style type="text/css">
	.st0{fill:#FFFFFF;}
</style>
<title>Group 5</title>
<desc>Created with Sketch.</desc>
<g>
	<path class="st0" d="M111,113.2v-4.5V94.2V77.6v-7.9c0,0,0,0,0,0v-6.5c0,0,0,0,0,0c0-2.3-1.9-4.2-4.2-4.2h-0.3h-2.5H93.2H77.8H61
		H46.5h-8.9h-1.3c-0.9,0-1.7,0.3-2.3,0.7c0,0,0,0,0,0c0,0,0,0-0.1,0.1c0,0-0.1,0-0.1,0.1c0,0,0,0,0,0c-1,0.8-1.7,2-1.7,3.4v0v0.5V66
		v3.7v3.2v15.8v16v9.5v0.6c0,1.9,1.4,3.7,3.2,4.1c0.7,0.2,1.4,0.1,2.1,0.1H46h14.4h16.7h15.6h10.9h2.7h0.4c1.9,0,3.7-1.4,4.1-3.2
		C111.1,115,111,114.1,111,113.2z M108.6,84.4v16.6v11.8v2c0,0.1,0,0.2,0,0.3c0-0.1,0,0.2,0,0.2c0,0.1-0.1,0.2-0.1,0.3
		c0-0.1-0.1,0.1-0.1,0.2c0,0-0.2,0.3-0.2,0.3c-0.1,0.1-0.1,0.1-0.2,0.2c0,0-0.1,0.1-0.2,0.1c-0.1,0-0.1,0.1-0.2,0.1
		c0,0-0.2,0.1-0.2,0.1c-0.1,0-0.2,0.1-0.2,0.1c0,0-0.2,0-0.2,0.1c-0.1,0-0.2,0-0.3,0h-0.4h-7.2H85.6H69.1H53H40.9h-3.5
		c-0.5,0-1,0-1.5,0c0.1,0-0.2,0-0.2,0c-0.1,0-0.2-0.1-0.3-0.1c0.1,0-0.1-0.1-0.2-0.1c-0.1,0-0.2-0.1-0.2-0.2
		c0.1,0.1-0.1-0.1-0.1-0.1c-0.1-0.1-0.1-0.1-0.2-0.2c0.1,0.1-0.1-0.1-0.1-0.2c0,0-0.1-0.3-0.1-0.3c0-0.1-0.1-0.2-0.1-0.3
		c0,0,0-0.2,0-0.2c0-0.1,0-0.2,0-0.3v0V114v-3.7V96.4V79.7v-8.8h3.3h11.5h15.6h16.8h15h10.3h1.7V84.4z M108.6,68.5h-3.3H93.8H78.2
		H61.4h-15H36.1h-1.7v-1.8v-3.1v-0.3v-0.1v0c0,0,0,0,0,0c0,0,0-0.2,0-0.3c0-0.1,0.1-0.3,0.1-0.3c0,0,0.1-0.2,0.1-0.2c0,0,0,0,0-0.1
		c0,0,0,0,0-0.1c0,0,0-0.1,0.1-0.1c0,0,0,0,0,0c0,0,0.1-0.1,0.1-0.2c0,0,0,0,0,0c0,0,0,0,0,0c0,0,0-0.1,0.1-0.1c0,0,0,0,0,0
		c0,0,0.1-0.1,0.1-0.1c0.1,0,0.1-0.1,0.2-0.1c0,0,0.2-0.1,0.2-0.1c0.1,0,0.2-0.1,0.3-0.1c0,0,0,0,0,0c0.1,0,0.1,0,0.2,0
		c0,0,0.1,0,0.1,0h0h0H42h12.7H71h16.4h13h6.2c0.1,0,0.3,0,0.4,0c0,0,0,0,0,0c0,0,0.3,0.1,0.3,0.1c0,0,0.1,0,0.1,0.1c0,0,0,0,0,0
		c-0.1,0,0.2,0.1,0.2,0.1c0.1,0,0.1,0.1,0.2,0.1c0,0,0,0,0.1,0c0,0,0,0,0.1,0c0,0,0,0,0,0c0,0,0.1,0.1,0.1,0.1c0,0,0,0,0,0
		c0,0,0.1,0.1,0.1,0.1c0,0,0,0.1,0.1,0.1c0,0,0,0,0,0c0,0.1,0.1,0.3,0.1,0.3c0,0,0,0,0,0c0,0,0,0,0,0c0,0,0,0.1,0,0.1c0,0,0,0,0,0
		c0,0,0,0.1,0,0.1c0,0.1,0,0.1,0,0.1c0,0,0,0,0,0c0,0.1,0,0.2,0,0.3V68.5z"/>
	<path class="st0" d="M38.5,63c-0.8,0-1.5,0.7-1.5,1.5c0,0.8,0.7,1.5,1.5,1.5c0.7,0,1.3-0.5,1.4-1.2c0-0.1,0.1-0.2,0.1-0.3
		c0-0.1,0-0.2,0-0.3C39.8,63.5,39.2,63,38.5,63z"/>
	<path class="st0" d="M43.5,63c-0.8,0-1.5,0.7-1.5,1.5c0,0.8,0.7,1.5,1.5,1.5c0.7,0,1.3-0.5,1.4-1.2c0-0.1,0.1-0.2,0.1-0.3
		c0-0.1,0-0.2,0-0.3C44.8,63.5,44.2,63,43.5,63z"/>
	<path class="st0" d="M48.5,63c-0.8,0-1.5,0.7-1.5,1.5c0,0.8,0.7,1.5,1.5,1.5c0.7,0,1.3-0.5,1.4-1.2c0-0.1,0.1-0.2,0.1-0.3
		c0-0.1,0-0.2,0-0.3C49.8,63.5,49.2,63,48.5,63z"/>
	<path class="st0" d="M48.9,95.6c-0.6-0.5-1.2-1-1.8-1.6c2.9-2.6,5.9-5.1,8.8-7.7c0.9-0.8,1.8-1.6,2.7-2.4c1.2-1-0.6-2.6-1.8-1.6
		c-3.2,2.8-6.5,5.7-9.7,8.5c-0.9,0.8-1.8,1.6-2.7,2.4c-0.5,0.4-0.5,1.2,0,1.6c3.2,2.8,6.5,5.7,9.7,8.5c0.9,0.8,1.8,1.6,2.7,2.4
		c1.2,1,3-0.6,1.8-1.6C55.4,101.2,52.1,98.4,48.9,95.6z"/>
	<path class="st0" d="M84.9,84.7c-0.9-0.8-1.8-1.6-2.7-2.4c-1.2-1-3,0.6-1.8,1.6c3.2,2.8,6.5,5.7,9.7,8.5c0.6,0.5,1.2,1,1.8,1.6
		c-2.9,2.6-5.9,5.1-8.8,7.7c-0.9,0.8-1.8,1.6-2.7,2.4c-1.2,1,0.6,2.6,1.8,1.6c3.2-2.8,6.5-5.7,9.7-8.5c0.9-0.8,1.8-1.6,2.7-2.4
		c0.5-0.4,0.5-1.2,0-1.6C91.4,90.4,88.1,87.5,84.9,84.7z"/>
	<path class="st0" d="M75.4,82.1c-0.6-0.3-1.4-0.1-1.7,0.4c-1.7,3-3.4,5.9-5.1,8.9c-2.3,4-4.6,8-6.9,12c-0.2,0.3-0.3,0.6-0.5,0.9
		c-0.3,0.5-0.2,1.2,0.4,1.5c0.6,0.3,1.4,0.1,1.7-0.4c1.7-3,3.4-5.9,5.1-8.9c2.3-4,4.6-8,6.9-12c0.2-0.3,0.3-0.6,0.5-0.9
		C76.2,83.2,76,82.5,75.4,82.1z"/>
</g>
</svg>
