<?xml version="1.0" encoding="utf-8"?>
<!-- Generator: Adobe Illustrator 19.0.0, SVG Export Plug-In . SVG Version: 6.00 Build 0)  -->
<svg version="1.1" id="圖層_1" xmlns="http://www.w3.org/2000/svg" xmlns:xlink="http://www.w3.org/1999/xlink" x="0px" y="0px"
	 viewBox="-4 11 150 150" style="enable-background:new -4 11 150 150;" xml:space="preserve">
<style type="text/css">
	.st0{fill:#FFFFFF;}
</style>
<title>Group 8</title>
<desc>Created with Sketch.</desc>
<g>
	<rect x="48" y="56" class="st0" width="10" height="2"/>
	<path class="st0" d="M116.2,73v-3.8h-38V59c0-4.4-3.7-8-8.1-8H36.1c-4.5,0-8.1,3.6-8.1,8v62c0,4.4,3.7,8,8.1,8h33.9
		c4.5,0,8.1-3.6,8.1-8v-16.6H80v3.8h40V73H116.2z M30,59c0-3.3,2.7-6,6.1-6h33.9c3.4,0,6.1,2.7,6.1,6v6.1H30V59z M76.2,121
		c0,3.3-2.7,6-6.1,6H36.1c-3.4,0-6.1-2.7-6.1-6v-3.3h46.1V121z M76.2,69.1v35.1v11.3H30V66.9h46.1V69.1z M78.2,71.3h36V73h-0.1
		c0,0,0,0.1,0.1,0.1v4.1h-36V71.3z M118,106.1H82v-1.8h34.2V83h1.8V106.1z"/>
	<circle class="st0" cx="110.5" cy="73.5" r="1.5"/>
	<circle class="st0" cx="105.5" cy="73.5" r="1.5"/>
	<circle class="st0" cx="100.5" cy="73.5" r="1.5"/>
	<path class="st0" d="M72.1,107H52.9c-0.5,0-0.9,0.4-0.9,1s0.4,1,0.9,1h19.2c0.5,0,0.9-0.4,0.9-1S72.6,107,72.1,107z"/>
	<path class="st0" d="M33.9,109h15.1c0.5,0,0.9-0.4,0.9-1s-0.4-1-0.9-1H33.9c-0.5,0-0.9,0.4-0.9,1S33.4,109,33.9,109z"/>
	<path class="st0" d="M33.9,113h18.1c0.5,0,0.9-0.4,0.9-1c0-0.6-0.4-1-0.9-1H33.9c-0.5,0-0.9,0.4-0.9,1C33,112.6,33.4,113,33.9,113z
		"/>
	<path class="st0" d="M72.1,111H55.9c-0.5,0-0.9,0.4-0.9,1c0,0.6,0.4,1,0.9,1h16.2c0.5,0,0.9-0.4,0.9-1C73,111.4,72.6,111,72.1,111z
		"/>
	<path class="st0" d="M52.9,74h19.2c0.5,0,0.9-0.4,0.9-1c0-0.6-0.4-1-0.9-1H52.9c-0.5,0-0.9,0.4-0.9,1C52,73.6,52.4,74,52.9,74z"/>
	<path class="st0" d="M33.9,74h15.1c0.5,0,0.9-0.4,0.9-1c0-0.6-0.4-1-0.9-1H33.9c-0.5,0-0.9,0.4-0.9,1C33,73.6,33.4,74,33.9,74z"/>
	<path class="st0" d="M33.9,78h18.1c0.5,0,0.9-0.4,0.9-1c0-0.6-0.4-1-0.9-1H33.9c-0.5,0-0.9,0.4-0.9,1C33,77.6,33.4,78,33.9,78z"/>
	<path class="st0" d="M72.1,76H55.9c-0.5,0-0.9,0.4-0.9,1c0,0.6,0.4,1,0.9,1h16.2c0.5,0,0.9-0.4,0.9-1C73,76.4,72.6,76,72.1,76z"/>
	<path class="st0" d="M52.5,80C46.2,80,41,85.2,41,91.5c0,0.4,0,0.8,0.1,1.2l0.1,0.9h0.1c1,5.3,5.7,9.4,11.3,9.4
		c6.3,0,11.5-5.2,11.5-11.5c0-6-4.6-10.9-10.5-11.4V80H52.5z M43.3,89.7c0-0.2,0.1-0.4,0.2-0.6c0.1-0.4,0.2-0.8,0.4-1.1
		c0.1-0.2,0.2-0.4,0.3-0.6c0.2-0.3,0.3-0.6,0.5-0.9c0.1-0.2,0.3-0.4,0.4-0.6c0.2-0.3,0.4-0.5,0.6-0.8c0.2-0.2,0.4-0.4,0.6-0.5
		c0.2-0.2,0.5-0.4,0.8-0.6c0.2-0.2,0.4-0.3,0.7-0.4c0.3-0.2,0.6-0.3,0.9-0.5c0.2-0.1,0.5-0.2,0.7-0.3c0.3-0.1,0.6-0.2,0.9-0.3
		c0.3-0.1,0.5-0.1,0.8-0.2c0.1,0,0.3,0,0.4,0v9.3h-8.4C43.1,90.9,43.2,90.3,43.3,89.7z M61.9,91.5c0,5.2-4.2,9.4-9.4,9.4
		c-4.5,0-8.2-3.1-9.2-7.3h10.2V82.2C58.2,82.7,61.9,86.7,61.9,91.5z"/>
</g>
</svg>
