<?xml version="1.0" encoding="UTF-8" standalone="no"?>
<svg
   xmlns:dc="http://purl.org/dc/elements/1.1/"
   xmlns:cc="http://creativecommons.org/ns#"
   xmlns:rdf="http://www.w3.org/1999/02/22-rdf-syntax-ns#"
   xmlns:svg="http://www.w3.org/2000/svg"
   xmlns="http://www.w3.org/2000/svg"
   viewBox="0 0 427.5 466.25"
   height="466.25"
   width="427.5"
   xml:space="preserve"
   version="1.1"
   id="svg2"><metadata
     id="metadata8"><rdf:RDF><cc:Work
         rdf:about=""><dc:format>image/svg+xml</dc:format><dc:type
           rdf:resource="http://purl.org/dc/dcmitype/StillImage" /></cc:Work></rdf:RDF></metadata><defs
     id="defs6"><clipPath
       id="clipPath16"
       clipPathUnits="userSpaceOnUse"><path
         id="path18"
         d="M 0,373 342,373 342,0 0,0 0,373 Z" /></clipPath><clipPath
       id="clipPath72"
       clipPathUnits="userSpaceOnUse"><path
         id="path74"
         d="m 138.357,93.426 c 0,-8.858 -2.935,-16.944 -6.037,-20.18 l 0,0 c -1.996,-2.102 -4.331,-3.846 -7.125,-5.102 l 0,0 c 11.109,4.037 22.38,-0.609 31.861,-5.017 l 0,0 c 7.324,-3.407 25.606,-19.393 40.811,-33.791 l 0,0 c 3.836,-3.631 7.471,-7.156 10.693,-10.359 l 0,0 c 0.199,-0.198 0.384,-0.387 0.58,-0.583 l 0,0 c 1.267,-1.264 2.445,-2.459 3.558,-3.598 l 0,0 c 0.318,-0.328 0.648,-0.662 0.952,-0.977 l 0,0 c 1.236,-1.279 2.389,-2.488 3.361,-3.542 l 0,0 c 17.93,8.575 28.052,16.681 34.82,24.867 l 0,0 c 0.032,0.037 0.059,0.052 0.092,0.089 l 0,0 c 0.158,0.183 0.312,0.4 0.469,0.587 l 0,0 c 0.132,0.163 0.262,0.326 0.39,0.488 l 0,0 c 5.849,7.174 11.39,18.049 13.561,28.206 l 0,0 c 0,0 -18.603,-0.454 -27.098,-0.454 l 0,0 c -8.495,0 -22.561,7.939 -31.287,16.384 l 0,0 c -21.381,20.748 -38.82,44.925 -58.293,67.353 l 0,0 c -2.769,3.209 -6.765,7.259 -11.367,9.353 l 0,0 0.059,-63.724 z M 123.554,67.483 c 0.564,0.202 1.111,0.423 1.641,0.661 l 0,0 c -0.547,-0.199 -1.094,-0.419 -1.641,-0.661" /></clipPath><linearGradient
       id="linearGradient80"
       spreadMethod="pad"
       gradientTransform="matrix(-71.841171,49.360264,49.360264,71.841171,256.48672,26.243406)"
       gradientUnits="userSpaceOnUse"
       y2="0"
       x2="1"
       y1="0"
       x1="0"><stop
         id="stop82"
         offset="0"
         style="stop-opacity:1;stop-color:#2c86a9" /><stop
         id="stop84"
         offset="1"
         style="stop-opacity:1;stop-color:#00a5b9" /></linearGradient><clipPath
       id="clipPath92"
       clipPathUnits="userSpaceOnUse"><path
         id="path94"
         d="M 0,373 342,373 342,0 0,0 0,373 Z" /></clipPath><linearGradient
       id="linearGradient112"
       spreadMethod="pad"
       gradientTransform="matrix(192.01978,-83.55059,-83.55059,-192.01978,46.357727,312.00708)"
       gradientUnits="userSpaceOnUse"
       y2="0"
       x2="1"
       y1="0"
       x1="0"><stop
         id="stop114"
         offset="0"
         style="stop-opacity:1;stop-color:#f29600" /><stop
         id="stop116"
         offset="1"
         style="stop-opacity:1;stop-color:#e50012" /></linearGradient><clipPath
       id="clipPath124"
       clipPathUnits="userSpaceOnUse"><path
         id="path126"
         d="M 0,373 342,373 342,0 0,0 0,373 Z" /></clipPath></defs><g
     transform="matrix(1.25,0,0,-1.25,0,466.25)"
     id="g10"><g
       id="g12"><g
         clip-path="url(#clipPath16)"
         id="g14"><g
           transform="translate(266.3437,64.5136)"
           id="g20"><path
             id="path22"
             style="fill:#ffffff;fill-opacity:1;fill-rule:evenodd;stroke:none"
             d="m 0,0 c 0,0 -18.604,-0.453 -27.099,-0.453 -8.495,0 -22.561,7.938 -31.287,16.384 -21.381,20.748 -38.82,44.924 -58.293,67.352 -2.768,3.209 -6.764,7.259 -11.367,9.354 l 0.06,-63.724 c 0,-8.859 -2.936,-16.944 -6.038,-20.181 -2.375,-2.501 -5.23,-4.496 -8.766,-5.762 -14.168,-6.267 -27.673,-1.901 -35.088,1.641 -0.032,0.018 -5.146,2.821 -7.368,4.903 -8.305,8.305 -7.284,27.598 -7.284,26.19 -0.01,6.838 -0.075,112.167 -0.114,173.865 l 23.623,0.22 c 15.097,1.208 27.059,-4.783 37.492,-14.776 l 68.507,-74.431 c 0,0 0.18,54.864 0.207,56.191 1.377,17.195 7.463,24.838 17.967,30.549 4.649,2.229 8.499,2.826 14.454,2.826 0.339,0 0.72,-0.082 1.075,-0.112 0.013,0.012 0.028,0.023 0.042,0.035 0.434,-0.052 0.868,-0.132 1.302,-0.178 l -10e-4,0 -0.624,0.009 c 16.032,-1.346 28.654,-14.716 28.654,-31.18 0,-0.294 0.106,-0.881 0.106,-0.881 L 0,0 Z" /></g><g
           transform="translate(341.7412,235.3632)"
           id="g24"><path
             id="path26"
             style="fill:#d70c18;fill-opacity:1;fill-rule:evenodd;stroke:none"
             d="m 0,0 c -1.506,22.609 -14.146,36.857 -38.575,43.945 -9.699,-1.185 -19.329,-2.514 -29.052,-3.494 -9.608,-0.969 -19.082,-2.272 -28.776,-1.914 -2.318,0.086 -4.644,0.26 -6.97,0.506 l -0.624,0.01 c 16.031,-1.347 28.653,-14.717 28.653,-31.181 0,-0.294 0.107,-0.881 0.107,-0.881 l -0.16,-177.841 c 0.501,2.629 1.034,6.199 1.668,10.381 1.098,6.131 6.017,37.693 13.623,54.238 10.426,22.681 41.173,48.225 41.173,48.225 2.569,7.512 8.6,19.553 8.6,19.553 l -0.107,0.02 C -4.636,-26.278 1.615,-14.25 0,0" /></g><g
           transform="translate(14.8066,123.7343)"
           id="g28"><path
             id="path30"
             style="fill:#004097;fill-opacity:1;fill-rule:evenodd;stroke:none"
             d="m 0,0 c 15.37,-16.951 32.722,-30.728 51.435,-43.47 3.329,-1.948 8.606,-5.077 14.857,-6.237 -8.306,8.306 -7.286,27.599 -7.286,26.19 -0.012,9.707 -0.14,218.009 -0.14,218.009 C 38.506,169.634 30.454,139.201 20.047,109.801 16.265,99.253 12.355,89.46 4.537,81.635 0.607,77.726 -2.108,74.203 -5.884,69.22 -12.889,58.453 -13.656,46.251 -13.97,33.95 -13.469,20.921 -8.586,9.479 0,0" /></g><g
           transform="translate(246.125,29.08)"
           id="g32"><path
             id="path34"
             style="fill:#e50012;fill-opacity:1;fill-rule:evenodd;stroke:none"
             d="M 0,0 C 2.15,2.021 4.03,4.038 5.702,6.06 4.029,4.038 2.148,2.021 0,0" /></g><g
           transform="translate(217.0107,10.2772)"
           id="g36"><path
             id="path38"
             style="fill:#e50012;fill-opacity:1;fill-rule:evenodd;stroke:none"
             d="M 0,0 C 2.006,0.959 3.882,1.911 5.699,2.86 3.882,1.911 2.006,0.959 0,0" /></g><g
           transform="translate(254.2588,38.2479)"
           id="g40"><path
             id="path42"
             style="fill:#e50012;fill-opacity:1;fill-rule:evenodd;stroke:none"
             d="M 0,0 C -0.49,-0.66 -0.979,-1.331 -1.477,-1.94 -1.604,-2.103 -1.735,-2.265 -1.866,-2.428 L -1.869,-2.432 C -1.218,-1.622 -0.592,-0.812 0,0" /></g><g
           transform="translate(228.5986,16.371)"
           id="g44"><path
             id="path46"
             style="fill:#e50012;fill-opacity:1;fill-rule:evenodd;stroke:none"
             d="M 0,0 C -1.43,-0.83 -2.938,-1.664 -4.505,-2.501 -2.938,-1.664 -1.431,-0.83 0,0" /></g><g
           transform="translate(212.6982,14.7958)"
           id="g48"><path
             id="path50"
             style="fill:#004097;fill-opacity:1;fill-rule:evenodd;stroke:none"
             d="m 0,0 c -1.112,1.14 -2.291,2.334 -3.558,3.599 -0.196,0.195 -0.381,0.383 -0.581,0.582 -3.221,3.203 -6.856,6.728 -10.692,10.36 -0.013,0.012 -0.025,0.024 -0.038,0.036 -2.513,2.377 -5.119,4.795 -7.734,7.194 -0.543,0.499 -1.087,0.995 -1.633,1.492 -2.634,2.398 -5.279,4.779 -7.864,7.047 -0.297,0.26 -0.591,0.516 -0.887,0.775 -0.753,0.656 -1.476,1.268 -2.214,1.902 -0.773,0.665 -1.557,1.347 -2.311,1.987 -0.329,0.278 -0.663,0.564 -0.988,0.837 -1.72,1.445 -3.395,2.828 -4.983,4.097 -0.072,0.059 -0.135,0.106 -0.207,0.162 -0.742,0.592 -1.405,1.086 -2.104,1.624 -0.669,0.518 -1.366,1.071 -1.997,1.541 -0.402,0.301 -0.78,0.572 -1.166,0.852 -0.493,0.358 -0.927,0.646 -1.39,0.969 -0.447,0.311 -0.92,0.653 -1.338,0.931 -0.346,0.23 -0.703,0.472 -1.028,0.677 -1.09,0.688 -2.1,1.281 -2.929,1.667 -9.948,4.626 -21.868,9.513 -33.503,4.357 -18.806,-8.32 -36.457,2.1 -40.227,4.455 2.682,-2.355 22.182,-22.054 23.343,-23.236 3.415,-3.402 6.611,-7.118 9.646,-10.794 17.346,-20.961 40.105,-30.061 64.5,-31.176 0.003,0 0.002,-0.003 0.002,-0.003 5.834,-0.424 28.403,-0.12 36.193,3.547 -0.971,1.054 -2.124,2.263 -3.36,3.541 C 0.647,-0.662 0.318,-0.327 0,0" /></g><g
           transform="translate(242.501,25.8886)"
           id="g52"><path
             id="path54"
             style="fill:#e50012;fill-opacity:1;fill-rule:evenodd;stroke:none"
             d="M 0,0 C -1.18,-0.975 -2.434,-1.95 -3.762,-2.929 -2.433,-1.951 -1.181,-0.975 0,0" /></g><g
           transform="translate(245.9355,28.9042)"
           id="g56"><path
             id="path58"
             style="fill:#e50012;fill-opacity:1;fill-rule:evenodd;stroke:none"
             d="M 0,0 C -1.016,-0.947 -2.092,-1.896 -3.234,-2.847 -2.091,-1.896 -1.017,-0.947 0,0" /></g><g
           transform="translate(238.2783,22.6288)"
           id="g60"><path
             id="path62"
             style="fill:#e50012;fill-opacity:1;fill-rule:evenodd;stroke:none"
             d="M 0,0 C -1.161,-0.844 -2.39,-1.691 -3.673,-2.54 -2.389,-1.691 -1.162,-0.844 0,0" /></g><g
           transform="translate(233.79,19.5497)"
           id="g64"><path
             id="path66"
             style="fill:#e50012;fill-opacity:1;fill-rule:evenodd;stroke:none"
             d="M 0,0 C -1.455,-0.943 -2.979,-1.891 -4.6,-2.843 -2.978,-1.891 -1.456,-0.944 0,0" /></g></g></g><g
       id="g68"><g
         clip-path="url(#clipPath72)"
         id="g70"><g
           id="g76"><g
             id="g78"><path
               id="path86"
               style="fill:url(#linearGradient80);stroke:none"
               d="m 138.357,93.426 c 0,-8.858 -2.935,-16.944 -6.037,-20.18 l 0,0 c -1.996,-2.102 -4.331,-3.846 -7.125,-5.102 l 0,0 c 11.109,4.037 22.38,-0.609 31.861,-5.017 l 0,0 c 7.324,-3.407 25.606,-19.393 40.811,-33.791 l 0,0 c 3.836,-3.631 7.471,-7.156 10.693,-10.359 l 0,0 c 0.199,-0.198 0.384,-0.387 0.58,-0.583 l 0,0 c 1.267,-1.264 2.445,-2.459 3.558,-3.598 l 0,0 c 0.318,-0.328 0.648,-0.662 0.952,-0.977 l 0,0 c 1.236,-1.279 2.389,-2.488 3.361,-3.542 l 0,0 c 17.93,8.575 28.052,16.681 34.82,24.867 l 0,0 c 0.032,0.037 0.059,0.052 0.092,0.089 l 0,0 c 0.158,0.183 0.312,0.4 0.469,0.587 l 0,0 c 0.132,0.163 0.262,0.326 0.39,0.488 l 0,0 c 5.849,7.174 11.39,18.049 13.561,28.206 l 0,0 c 0,0 -18.603,-0.454 -27.098,-0.454 l 0,0 c -8.495,0 -22.561,7.939 -31.287,16.384 l 0,0 c -21.381,20.748 -38.82,44.925 -58.293,67.353 l 0,0 c -2.769,3.209 -6.765,7.259 -11.367,9.353 l 0,0 0.059,-63.724 z M 123.554,67.483 c 0.564,0.202 1.111,0.423 1.641,0.661 l 0,0 c -0.547,-0.199 -1.094,-0.419 -1.641,-0.661" /></g></g></g></g><g
       id="g88"><g
         clip-path="url(#clipPath92)"
         id="g90"><g
           transform="translate(322.666,177.2382)"
           id="g96"><path
             id="path98"
             style="fill:#4bb6c2;fill-opacity:1;fill-rule:evenodd;stroke:none"
             d="m 0,0 c -1.495,-1.252 -30.87,-26.003 -41.031,-48.106 -6.978,-15.179 -11.684,-42.939 -13.264,-52.165 -0.049,-0.689 -0.153,-1.369 -0.359,-2.073 -0.634,-4.182 -1.167,-7.752 -1.668,-10.381 -1.988,-9.293 -6.802,-19.155 -12.085,-26.265 -0.592,-0.812 -1.218,-1.622 -1.869,-2.432 -0.157,-0.187 -0.31,-0.401 -0.563,-0.677 -1.672,-2.021 -3.552,-4.039 -5.702,-6.059 -0.062,-0.059 -0.127,-0.117 -0.189,-0.176 -1.017,-0.947 -2.091,-1.896 -3.235,-2.847 -0.068,-0.056 -0.132,-0.112 -0.2,-0.169 -1.181,-0.974 -2.433,-1.951 -3.762,-2.928 -0.149,-0.111 -0.31,-0.221 -0.461,-0.331 -1.162,-0.844 -2.388,-1.692 -3.673,-2.54 -0.271,-0.18 -0.538,-0.36 -0.815,-0.539 -1.456,-0.945 -2.978,-1.891 -4.6,-2.843 -0.189,-0.112 -0.398,-0.224 -0.591,-0.336 -1.431,-0.83 -2.939,-1.664 -4.505,-2.501 -0.457,-0.244 -0.915,-0.488 -1.384,-0.733 -1.817,-0.949 -3.693,-1.901 -5.699,-2.86 6.012,-4.7 16.36,-7.502 24.982,-8.838 2.82,-0.467 5.692,-0.772 8.548,-0.888 0.341,-0.012 0.683,-0.035 1.022,-0.041 0.258,-0.004 0.585,-0.032 0.827,-0.032 0.49,0 0.867,0.039 1.167,0.106 32.294,0.449 58.285,25.576 57.851,62.203 -0.22,19.013 -1.854,38.038 -3.089,57.038 -1.121,17.158 2.088,33.309 9.727,48.76 C -3.508,-6.422 -1.558,-3.281 0,0" /></g></g></g><g
       id="g100"><g
         id="g102"><g
           id="g108"><g
             id="g110"><path
               id="path118"
               style="fill:url(#linearGradient112);stroke:none"
               d="M 107.399,335.764 C 96.298,334.891 88.346,331.07 73.673,318.226 l 0,0 c 0,0 0.011,-18.259 0.027,-44.143 l 0,0 23.622,0.22 c 15.098,1.207 27.059,-4.784 37.493,-14.777 l 0,0 68.507,-74.43 c 0,0 0.18,54.864 0.207,56.191 l 0,0 c 1.378,17.194 7.463,24.838 17.967,30.548 l 0,0 c 4.649,2.229 8.499,2.827 14.454,2.827 l 0,0 c 0.339,0 0.72,-0.082 1.074,-0.113 l 0,0 c 0.014,0.013 0.029,0.024 0.042,0.036 l 0,0 c -5.229,0.621 -10.433,1.668 -15.524,3.125 l 0,0 c -0.506,0.144 -1.015,0.272 -1.517,0.424 l 0,0 c -1.193,0.364 -2.368,0.771 -3.544,1.181 l 0,0 c -0.844,0.293 -1.685,0.589 -2.519,0.906 l 0,0 c -1.011,0.386 -2.01,0.794 -3.006,1.218 l 0,0 c -1.003,0.425 -1.993,0.873 -2.979,1.336 l 0,0 c -0.854,0.402 -1.707,0.803 -2.547,1.233 l 0,0 c -1.171,0.599 -2.313,1.242 -3.45,1.897 l 0,0 c -0.648,0.372 -1.306,0.724 -1.942,1.114 l 0,0 c -1.771,1.086 -3.505,2.227 -5.18,3.455 l 0,0 c -8.818,6.477 -17.491,13.609 -26.216,20.18 l 0,0 c -15.979,13.935 -32.876,24.49 -54.778,25.365 l 0,0 c -0.284,0.006 -0.568,0.009 -0.852,0.009 l 0,0 c -1.88,0 -3.748,-0.13 -5.613,-0.264" /></g></g></g></g><g
       id="g120"><g
         clip-path="url(#clipPath124)"
         id="g122"><g
           transform="translate(213.0312,336.4242)"
           id="g128"><path
             id="path130"
             style="fill:#f29600;fill-opacity:1;fill-rule:evenodd;stroke:none"
             d="m 0,0 c -13.869,15.171 -31.768,25.832 -51.601,32.489 -33.176,11.148 -66.559,-4.216 -79.434,-36.711 0.04,0.101 0.092,0.193 0.132,0.294 0.006,0.016 0.012,0.03 0.017,0.045 -0.011,-0.002 -0.022,-0.004 -0.033,-0.005 -0.834,-2.909 -5.943,-11.755 -7.511,-13.189 -0.287,-0.394 -0.628,-0.748 -0.928,-1.121 14.673,12.844 22.626,16.665 33.727,17.538 2.146,0.154 4.295,0.303 6.464,0.254 21.902,-0.875 38.799,-11.428 54.777,-25.364 8.726,-6.571 17.399,-13.703 26.217,-20.18 14.439,-10.59 32.719,-15.917 50.481,-16.574 9.693,-0.358 19.167,0.945 28.775,1.914 9.723,0.98 19.352,2.309 29.052,3.494 C 55.011,-46.762 24.783,-27.165 0,0" /></g></g></g></g></svg>