<?xml version="1.0" encoding="UTF-8"?>
<svg width="342px" height="373px" viewBox="0 0 342 373" version="1.1" xmlns="http://www.w3.org/2000/svg" xmlns:xlink="http://www.w3.org/1999/xlink">
    <!-- Generator: Sketch 46.2 (44496) - http://www.bohemiancoding.com/sketch -->
    <title>logo</title>
    <desc>Created with Sketch.</desc>
    <defs>
        <linearGradient x1="93.1006304%" y1="89.1287061%" x2="42.820453%" y2="55.5038055%" id="linearGradient-1">
            <stop stop-color="#2F87AA" offset="0%"></stop>
            <stop stop-color="#00A6BA" offset="100%"></stop>
        </linearGradient>
        <linearGradient x1="-16.7091967%" y1="15.9116022%" x2="100.816577%" y2="71.2596685%" id="linearGradient-2">
            <stop stop-color="#F39800" offset="0%"></stop>
            <stop stop-color="#E60012" offset="100%"></stop>
        </linearGradient>
    </defs>
    <g id="NEXIO" stroke="none" stroke-width="1" fill="none" fill-rule="evenodd">
        <g id="0.home" transform="translate(-618.000000, -1139.000000)">
            <g id="logo" transform="translate(618.000000, 1139.000000)">
                <path d="M265.84974,308.482295 C265.84974,308.482295 247.150779,309 238.803028,309 C230.455277,309 216.214014,301.050716 207.482266,292.600427 C186.078633,271.825408 168.615138,247.610152 149.04801,225.148415 C145.938772,221.273769 142.062173,218.084061 137.661678,215.779616 L137.661678,279.59099 C137.661678,288.458783 134.72327,296.558369 131.617907,299.798203 C129.192619,302.396579 126.181742,304.377672 122.836073,305.576464 C108.644896,311.85573 95.1382353,307.480284 87.775519,303.906446 C85.1759394,302.492755 82.7113887,300.843671 80.4128028,298.979894 C72.0650519,290.629806 73.1168685,271.341102 73.1168685,272.760617 C73.1168685,265.913545 73.1168685,160.435232 73,98.6612795 L96.6408304,98.4441772 C111.75026,97.2417645 123.73763,103.237128 134.172318,113.240533 L202.757439,187.77342 C202.757439,187.77342 202.94109,132.82984 202.957785,131.510526 C204.343512,114.292645 210.43737,106.643964 220.938841,100.915803 C225.465271,98.7615818 230.458511,97.7741361 235.463927,98.043373 C235.797837,98.043373 236.181834,98.043373 236.532439,98.1602742 L236.532439,98.1602742 L237.834689,98.3439761 L237.216955,98.3439761 C253.446307,99.7000491 265.92159,113.282884 265.899827,129.573306 C265.914255,129.870182 265.947715,130.165826 266,130.458415 L265.84974,308.482295 Z" id="Shape" fill="#FFFFFF"></path>
                <path d="M341.741449,137.18258 C340.244219,114.445738 327.634209,100.126223 303.262621,93 C293.58053,94.1904984 283.981617,95.531905 274.28289,96.5211924 C264.584162,97.5104797 255.251424,98.8015836 245.569333,98.4494644 C243.256943,98.3656265 240.944554,98.181183 238.615528,97.9464369 L238,97.9464369 C254.171411,99.3079834 266.602155,112.945642 266.58047,129.301816 C266.594846,129.599891 266.628187,129.896728 266.680285,130.190498 L266.513926,309 C267.013003,306.350722 267.545352,302.762459 268.177516,298.570564 C269.275485,292.400093 274.183075,260.675827 281.769043,244.042385 C292.166478,221.238472 322.843071,195.550536 322.843071,195.550536 C325.36996,188.85669 328.235081,182.297576 331.427194,175.898929 L331.327378,175.898929 C337.11667,163.608291 343.355131,151.518864 341.741449,137.18258 Z" id="Shape" fill="#D80C18"></path>
                <path d="M14.1030542,250.103128 C29.6029503,267.103538 47.1223769,280.924737 66.0049865,293.70851 C70.5955628,296.659989 75.670564,298.789318 81,300 C72.5852898,291.633657 73.6455433,272.307403 73.6455433,273.729682 C73.6455433,263.991258 73.510908,55 73.510908,55 C52.9621857,79.9317033 44.9008934,110.468857 34.3320175,139.968584 C30.511739,150.543642 26.5736547,160.382461 18.6806566,168.230092 C14.8670399,172.113063 11.3510893,176.274393 8.16226886,180.67921 C1.09391232,191.455061 0.319758986,203.703388 0,216.035378 C0.427948447,228.707928 5.43483423,240.802708 14.1030542,250.103128 L14.1030542,250.103128 Z" id="Shape" fill="#004098"></path>
                <path d="M246,344 C247.776491,342.12073 249.446467,340.116759 251,338 C249.445947,340.116238 247.776,342.120174 246,344 Z" id="Shape" fill="#E60012"></path>
                <path d="M217,363 C218.754386,361.988372 220.406433,360.994186 222,360 C220.479532,360.994186 218.769006,362.005814 217,363 Z" id="Shape" fill="#E60012"></path>
                <path d="M254,335 C253.482143,335.827586 252.946429,336.655172 252.410714,337.4 L252,338 L252,338 C252.625,337.006897 253.285714,336.013793 254,335 Z" id="Shape" fill="#E60012"></path>
                <path d="M228,357 C226.725926,358 225.392593,359 224,360 C225.392593,358.98 226.725926,357.98 228,357 Z" id="Shape" fill="#E60012"></path>
                <path d="M212.553393,358.81924 L208.992764,355.180267 L208.407685,354.590619 C205.181387,351.355976 201.537176,347.85178 197.692365,344.128571 L197.692365,344.128571 L197.692365,344.128571 C195.168164,341.719436 192.560379,339.276607 189.935878,336.867472 L188.264222,335.36808 C185.623004,332.942098 182.96507,330.532963 180.374002,328.241757 L179.488024,327.466791 L177.264721,325.546222 L174.941118,323.541417 L174.105289,322.59798 C172.433633,321.132282 170.761976,319.733973 169.090319,318.453594 L168.889721,318.285123 C168.154192,317.695474 167.485529,317.190061 166.783433,316.600413 L164.777445,315.05048 L163.607285,314.191278 L162.21981,313.214146 L160.882485,312.270709 L159.846058,311.579978 C158.899614,310.959701 157.917149,310.397124 156.903942,309.895268 C146.874002,305.228622 134.988523,300.292422 123.320359,305.498175 C104.464072,313.921724 86.7779441,303.375441 83,301 C85.6913673,303.375441 105.233034,323.271864 106.403194,324.468008 C109.746507,327.837427 113.08982,331.661718 116.065369,335.36808 C133.450599,356.544882 156.18513,365.692856 180.72505,366.855306 L180.72505,366.855306 C186.575848,367.276484 209.143214,366.973236 217,363.266874 C216.030439,362.205507 214.876996,360.975669 213.656687,359.695289 L212.553393,358.81924 Z" id="Shape" fill="#004098"></path>
                <path d="M243,348 C241.749263,349 240.415929,350 239,351 C240.415929,350 241.749263,349 243,348 Z" id="Shape" fill="#E60012"></path>
                <path d="M246,344 C244.749141,344.994152 243.415808,345.994152 242,347 C243.37457,346.040936 244.707904,345.040936 246,344 Z" id="Shape" fill="#E60012"></path>
                <path d="M238,351 C236.727273,352.006579 235.4,352.973684 234,354 C235.393939,353 236.727273,352 238,351 Z" id="Shape" fill="#E60012"></path>
                <path d="M233,354 C231.73913,355.005882 230.405797,355.994118 229,357 C230.42029,355.994118 231.73913,355.005882 233,354 Z" id="Shape" fill="#E60012"></path>
                <path d="M252.946299,337.417358 L253.332944,336.933091 C259.92561,328.634615 264.59238,318.992516 267,308.695331 C267,308.695331 248.172076,309.212996 239.766752,309.212996 C231.361429,309.212996 217.021947,301.264342 208.229979,292.814722 C186.67873,272.04135 169.094793,247.828013 149.392715,225.368056 C146.262033,221.493717 142.358698,218.304262 137.927854,216 L137.927854,279.806316 C137.927854,288.673407 134.96918,296.77235 131.8424,300.011928 C129.400386,302.610098 126.368744,304.591034 123,305.789731 C134.767453,300.629785 146.736633,305.522549 156.772589,310.148131 C164.152463,313.487902 182.576932,329.568897 197.908242,343.980007 C201.774691,347.620357 205.439412,351.143815 208.683866,354.349994 L209.272239,354.934454 L212.869717,358.474611 L213.827924,359.459843 C215.071912,360.745655 216.231847,361.947972 217.190054,363 C235.261499,354.41679 245.465562,346.301147 252.290684,338.102011 L252.391548,338.018516 L252.946299,337.417358 Z" id="Shape" fill="url(#linearGradient-1)"></path>
                <path d="M323,196 C321.494081,197.253532 292.028256,222.056759 281.8382,244.219211 C274.844041,259.428737 270.125493,287.257155 268.452249,296.499866 C268.404562,297.201921 268.281143,297.896782 268.084136,298.572373 C267.448303,302.767528 266.912865,306.344274 266.410892,308.968335 C264.225627,318.462951 260.138938,327.417479 254.397001,335.292514 C253.811365,336.111488 253.175533,336.96389 252.522968,337.732724 C252.372376,337.916575 252.205051,338.133854 251.954065,338.417988 C250.176048,340.558418 248.264762,342.584799 246.231571,344.485084 L246.030781,344.585367 C245.01568,345.53248 243.933649,346.485165 242.784688,347.443421 L242.583899,347.610558 C241.401473,348.591099 240.140963,349.57164 238.802368,350.552181 L238.33386,350.886456 C237.218364,351.733287 235.991318,352.580118 234.652723,353.426949 L233.832833,353.961789 C232.377111,354.914474 230.837727,355.850444 229.21468,356.803129 L228.629045,357.137404 C227.190055,357.973093 225.684136,358.808781 224.111287,359.644469 L222.722494,360.379875 C220.898658,361.332559 219.024625,362.285244 217,363.254642 C223.04041,367.967924 233.414522,370.775836 242.098658,372.112937 C244.938936,372.58433 247.805632,372.880169 250.682399,372.998767 L251.703078,372.998767 L252.5397,372.998767 C252.932584,373.007067 253.325232,372.973449 253.710971,372.898484 C286.104972,372.447213 312.190845,347.259569 311.755801,310.556142 C311.538279,291.502451 309.8985,272.432045 308.6603,253.395068 C307.461857,236.525421 310.831399,219.644556 318.415312,204.52402 C319.435991,202.434799 321.326756,199.275898 323,196 Z" id="Shape" fill="#4CB7C3"></path>
                <path d="M221.431969,95.3310497 L219.908646,94.9139227 C218.703379,94.5468508 217.531591,94.1464088 216.359804,93.7292818 C215.506073,93.4289503 214.685822,93.1453039 213.832091,92.8282873 C212.978361,92.5112707 211.806573,92.0274033 210.818924,91.6102762 C209.831275,91.1931492 208.810146,90.7426519 207.822497,90.2754696 C206.834847,89.8082873 206.148515,89.4745856 205.261304,89.0407735 C204.089517,88.4401105 202.93447,87.8060773 201.796162,87.138674 C201.143309,86.7716022 200.490456,86.4212155 199.854343,86.0207735 C198.079922,84.9362431 196.338981,83.7849724 194.64826,82.5669613 C185.792896,76.0931492 177.08819,68.9519337 168.333265,62.378011 C152.22956,48.4292818 135.339083,37.8676243 113.342962,37 C111.166786,37 109.007349,37.1001105 106.847913,37.2502762 C95.6991936,38.1179006 87.7310401,41.9387845 73,54.8029834 C73,54.8029834 73,73.0731492 73,98.9683978 L96.7035827,98.7514917 C111.853118,97.5501657 123.872308,103.54011 134.334694,113.534475 L203.101868,188 C203.101868,188 203.286006,133.106077 203.302746,131.787956 C204.692151,114.585635 210.802184,106.943867 221.33153,101.220884 C225.883037,99.0746032 230.9016,98.0994128 235.928652,98.3844199 C236.263448,98.3844199 236.648464,98.3844199 237,98.5012155 L237,98.5012155 C231.734028,97.8606838 226.528022,96.8005689 221.431969,95.3310497 Z" id="Shape" fill="url(#linearGradient-2)"></path>
                <path d="M212.634501,36.2038489 C198.729545,20.9806192 180.880395,10.2909008 160.925447,3.61610008 C127.683912,-7.55875424 94.2251126,7.84849251 81.3229182,40.4195125 L81.4566197,40.1183937 L81.4566197,40.1183937 L81.4566197,40.1183937 C79.5576684,44.848682 77.0277996,49.2999228 73.9359105,53.3508934 C73.6517948,53.7523851 73.3008284,54.1036904 73,54.4717246 C87.7071647,41.5905302 95.6791164,37.7429007 106.793053,36.8730019 C108.94899,36.7224425 111.104927,36.5718831 113.277576,36.6220695 C135.221334,37.4919684 152.167999,48.0813139 168.178753,62.0666106 C176.919488,68.6577672 185.610086,75.8177038 194.451097,82.3084874 C208.924284,92.9312906 227.241389,98.2677854 245.040401,98.9369383 C254.750472,99.3049725 264.243279,97.9833954 273.886499,97.0131236 C283.52972,96.0428518 293.273216,94.7045459 303,93.5000706 C267.752943,83.111471 237.469554,63.455103 212.634501,36.2038489 Z" id="Shape" fill="#F39800"></path>
            </g>
        </g>
    </g>
</svg>