<?xml version="1.0" encoding="utf-8"?>
<!-- Generator: Adobe Illustrator 19.0.0, SVG Export Plug-In . SVG Version: 6.00 Build 0)  -->
<svg version="1.1" id="Capa_1" xmlns="http://www.w3.org/2000/svg" xmlns:xlink="http://www.w3.org/1999/xlink" x="0px" y="0px"
	 viewBox="412 65 40 40" style="enable-background:new 412 65 40 40;" xml:space="preserve">
<style type="text/css">
	.st0{fill:url(#SVGID_1_);}
</style>
<g>
	<linearGradient id="SVGID_1_" gradientUnits="userSpaceOnUse" x1="432" y1="102.0375" x2="432" y2="68.4031">
		<stop  offset="0" style="stop-color:#B324CA"/>
		<stop  offset="1" style="stop-color:#1B5FC6"/>
	</linearGradient>
	<path class="st0" d="M432,65c-6.9,0-12.5,5.6-12.5,12.5c0,1.9,0.4,3.8,1.2,5.4C420.8,83,432,105,432,105l11.1-21.8
		c0.9-1.7,1.4-3.6,1.4-5.7C444.5,70.6,438.9,65,432,65z M432,85c-4.1,0-7.5-3.4-7.5-7.5s3.4-7.5,7.5-7.5c4.1,0,7.5,3.4,7.5,7.5
		S436.1,85,432,85z"/>
</g>
</svg>
