<?xml version="1.0" encoding="UTF-8"?>
<svg width="121px" height="43px" viewBox="0 0 121 43" version="1.1" xmlns="http://www.w3.org/2000/svg" xmlns:xlink="http://www.w3.org/1999/xlink">
    <!-- Generator: Sketch 46.2 (44496) - http://www.bohemiancoding.com/sketch -->
    <title>nexio-logo</title>
    <desc>Created with Sketch.</desc>
    <defs>
        <linearGradient x1="93.3581626%" y1="89.0700483%" x2="43.1409063%" y2="55.4347826%" id="linearGradient-1">
            <stop stop-color="#2F87AA" offset="0%"></stop>
            <stop stop-color="#00A6BA" offset="100%"></stop>
        </linearGradient>
        <linearGradient x1="-16.468039%" y1="15.7092614%" x2="100.758397%" y2="70.926143%" id="linearGradient-2">
            <stop stop-color="#F39800" offset="0%"></stop>
            <stop stop-color="#E60012" offset="100%"></stop>
        </linearGradient>
    </defs>
    <g id="NEXIO" stroke="none" stroke-width="1" fill="none" fill-rule="evenodd">
        <g id="0.home" transform="translate(-359.000000, -30.000000)">
            <g id="banner_01" transform="translate(0.000000, -18.000000)">
                <g id="nexio-logo" transform="translate(358.000000, 48.000000)">
                    <g id="logo-web">
                        <path d="M39.42,16.46 C39.25,13.91 37.83,12.31 35.07,11.46 C33.98,11.59 32.89,11.74 31.8,11.85 C30.7263586,11.9978938 29.6437788,12.0714023 28.56,12.07 L27.77,12.01 L27.7,12.01 C29.5261325,12.1609613 30.9310236,13.6876386 30.93,15.52 C30.927861,15.553299 30.927861,15.586701 30.93,15.62 L30.93,35.62 C30.99,35.32 31.05,34.92 31.12,34.45 C31.4205884,32.365544 31.936686,30.3179098 32.66,28.34 C33.82,25.87 37.29,23 37.29,23 C37.5854305,22.2500222 37.919204,21.5157207 38.29,20.8 L38.29,20.8 C39.078537,19.4930909 39.4710626,17.9855146 39.42,16.46 L39.42,16.46 Z" id="Shape" fill="#D80C18"></path>
                        <path d="M2.57,29 C4.3009021,30.8588985 6.24808539,32.5039326 8.37,33.9 C8.88173182,34.2286583 9.4468671,34.4655414 10.04,34.6 C9.1,33.66 9.22,31.49 9.22,31.6 C9.22,30.51 9.22,7.03 9.22,7.03 C6.91,9.92 6,13.35 4.83,16.66 C4.4930272,17.8350509 3.89478434,18.9187252 3.08,19.83 C2.65563025,20.2668342 2.26453866,20.734807 1.91,21.23 C1.23109748,22.4491466 0.915328898,23.8371404 1,25.23 C1.05959748,26.6331085 1.61606321,27.9693352 2.57,29 Z" id="Shape" fill="#004098"></path>
                        <path d="M28.64,39.71 C28.867343,39.4969395 29.0810961,39.2698268 29.28,39.03 C29.0810373,39.2697748 28.8672876,39.4968839 28.64,39.71 L28.64,39.71 Z" id="Shape" fill="#E60012"></path>
                        <path d="M25.36,41.83 L26,41.5 L25.36,41.83 Z" id="Shape" fill="#E60012"></path>
                        <polygon id="Shape" fill="#E60012" points="29.56 38.67 29.39 38.89 29.39 38.94 29.39 38.94"></polygon>
                        <path d="M26.67,41.14 L26.16,41.42 L26.67,41.14 Z" id="Shape" fill="#E60012"></path>
                        <path d="M24.88,41.32 L24.48,40.91 L24.41,40.84 L23.21,39.67 L23.21,39.67 L22.34,38.86 L22.16,38.69 L21.27,37.9 L21.17,37.81 L20.92,37.6 L20.66,37.38 L20.55,37.29 L20,36.82 L20,36.82 L19.76,36.64 L19.53,36.47 L19.4,36.37 L19.24,36.26 L19.09,36.15 L18.97,36.07 L18.64,35.88 C17.5133715,35.1687262 16.1307477,34.9894972 14.86,35.39 C13.3574181,35.9612193 11.6718323,35.7751723 10.33,34.89 C10.63,35.16 12.83,37.38 12.96,37.51 C13.34,37.89 13.71,38.31 14.05,38.73 C15.8439912,40.9061422 18.5001855,42.1885688 21.32,42.24 L21.32,42.24 C22.6926395,42.3256921 24.0701385,42.1906432 25.4,41.84 L25.02,41.44 L24.88,41.32 Z" id="Shape" fill="#004098"></path>
                        <path d="M28.24,40.07 L27.82,40.4 L28.24,40.07 Z" id="Shape" fill="#E60012"></path>
                        <path d="M28.62,39.73 L28.26,40.05 L28.62,39.73 Z" id="Shape" fill="#E60012"></path>
                        <path d="M27.76,40.43 L27.35,40.72 L27.76,40.43 Z" id="Shape" fill="#E60012"></path>
                        <path d="M27.25,40.78 L26.73,41.1 L27.25,40.78 Z" id="Shape" fill="#E60012"></path>
                        <path d="M29.35,38.95 L29.35,38.9 C30.0880743,37.9656788 30.6105334,36.8797834 30.88,35.72 C30.88,35.72 28.78,35.77 27.83,35.77 C26.4877649,35.5407794 25.252284,34.8932894 24.3,33.92 C21.89,31.58 19.92,28.86 17.73,26.33 C17.3799802,25.8957997 16.944256,25.5383696 16.45,25.28 L16.45,32.46 C16.4828697,33.2713322 16.2435135,34.0703597 15.77,34.73 C15.4937331,35.0238655 15.1507166,35.2468263 14.77,35.38 C16.0407477,34.9794972 17.4233715,35.1587262 18.55,35.87 C20.2075072,36.9821433 21.7486372,38.258601 23.15,39.68 L24.35,40.85 L24.42,40.92 L24.82,41.33 L24.93,41.44 L25.31,41.84 C26.8329228,41.2038986 28.1931882,40.2332569 29.29,39 L29.29,39 L29.35,38.95 Z" id="Shape" fill="url(#linearGradient-1)"></path>
                        <path d="M37.27,23 C37.1,23.14 33.79,25.93 32.65,28.42 C31.9470915,30.3218859 31.4476379,32.292884 31.16,34.3 C31.1680372,34.376456 31.1680372,34.453544 31.16,34.53 C31.09,35 31.03,35.4 30.97,35.7 C30.7263821,36.7824112 30.2635273,37.8034144 29.61,38.7 L29.4,38.97 L29.34,39.05 C29.1410961,39.2898268 28.927343,39.5169395 28.7,39.73 L28.7,39.73 L28.34,40.05 L28.34,40.05 L27.92,40.38 L27.87,40.38 L27.46,40.67 L27.37,40.73 L26.85,41.05 L26.78,41.05 L26.27,41.33 L26,41.5 L25.36,41.82 C26.211052,42.3648182 27.1758415,42.7069422 28.18,42.82 C28.5108588,42.8746312 28.8448748,42.9080328 29.18,42.92 L29.52,42.92 C31.3280585,42.9014126 33.0493155,42.1418474 34.2817045,40.8187304 C35.5140934,39.4956135 36.1496806,37.7248244 36.04,35.92 C36.04,33.78 35.83,31.63 35.69,29.49 C35.5561681,27.5911543 35.9361376,25.6913069 36.79,23.99 C36.88,23.73 37.1,23.38 37.27,23 Z" id="Shape" fill="#4CB7C3"></path>
                        <path d="M25.87,11.69 L25.7,11.69 L25.3,11.56 L25,11.4 L24.66,11.26 L24.32,11.11 L24.06,11 L23.67,10.79 L23.45,10.66 C23.25,10.54 23.05,10.41 22.87,10.27 C21.87,9.54 20.87,8.74 19.87,8 C18.2180901,6.3444032 16.0309819,5.33060587 13.7,5.14 C13.46,5.14 13.21,5.14 12.97,5.14 C11.72,5.24 10.82,5.67 9.17,7.14 C9.17,7.14 9.17,9.2 9.17,12.14 L11.83,12.14 C13.4195424,12.0312609 14.973433,12.6447355 16.06,13.81 L23.78,22.2 C23.78,22.2 23.78,16.02 23.78,15.87 C23.7208536,14.4319384 24.5010074,13.0900738 25.78,12.43 C26.3050376,12.1366262 26.8986733,11.9882173 27.5,12 L27.63,12 C27.035984,11.9439235 26.4474274,11.8402573 25.87,11.69 Z" id="Shape" fill="url(#linearGradient-2)"></path>
                        <path d="M24.91,5.07 C23.3162842,3.37553599 21.3165277,2.11579268 19.1,1.41 C17.3576065,0.76414195 15.4299103,0.837590952 13.7417141,1.61416119 C12.053518,2.39073142 10.7433754,3.80668828 10.1,5.55 L10.1,5.55 L10.1,5.55 C9.90089948,6.06565749 9.63532131,6.55311108 9.31,7 L9.21,7.13 C10.86,5.68 11.76,5.25 13.01,5.13 C13.25,5.13 13.49,5.13 13.74,5.13 C16.0723078,5.32331007 18.2595882,6.34073225 19.91,8 C20.91,8.74 21.91,9.54 22.91,10.27 C24.5809165,11.440492 26.5604854,12.0910709 28.6,12.14 C29.6837788,12.1414023 30.7663586,12.0678938 31.84,11.92 C32.94,11.81 34.02,11.66 35.11,11.53 C31.1760833,10.3656322 27.6441478,8.12873975 24.91,5.07 L24.91,5.07 Z" id="Shape" fill="#F39800"></path>
                        <path d="M80.43,29.78 L85.27,23.78 L80.71,18.12 C80.4412734,17.8069402 80.28622,17.4122588 80.27,17 C80.2643835,16.6235069 80.4128521,16.261068 80.6809841,15.9967124 C80.9491161,15.7323569 81.3136244,15.5890441 81.69,15.6 C82.2175838,15.5830032 82.7137769,15.8501841 82.99,16.3 L87.11,21.72 L91.18,16.39 C91.4724125,15.8958657 92.0058508,15.5948541 92.58,15.6 C93.2957035,15.6054428 93.8745572,16.1842965 93.88,16.9 C93.8717757,17.3079317 93.7153767,17.6989292 93.44,18 L88.88,23.68 L93.68,29.68 C93.9423819,29.9773109 94.0973298,30.354116 94.12,30.75 C94.1256165,31.1264931 93.9771479,31.488932 93.7090159,31.7532876 C93.4408839,32.0176431 93.0763756,32.1609559 92.7,32.15 C92.1724162,32.1669968 91.6762231,31.8998159 91.4,31.45 L87,25.77 L82.69,31.38 C82.3932379,31.8696708 81.862577,32.1691151 81.29,32.17 C80.9434622,32.1673754 80.6123158,32.0264966 80.3701022,31.7786501 C80.1278886,31.5308036 79.9946586,31.1965066 80,30.85 C80.0206285,30.4554995 80.171904,30.0790696 80.43,29.78 L80.43,29.78 Z" id="Shape" fill="#FFFFFF" fill-rule="nonzero"></path>
                        <path d="M97.64,17.07 C97.64,16.2802328 98.2802328,15.64 99.07,15.64 C99.8597672,15.64 100.5,16.2802328 100.5,17.07 L100.5,30.75 C100.5,31.5397672 99.8597672,32.18 99.07,32.18 C98.2802328,32.18 97.64,31.5397672 97.64,30.75 L97.64,17.07 Z" id="Shape" fill="#FFFFFF" fill-rule="nonzero"></path>
                        <path d="M104.13,24 L104.13,24 C104.436718,19.5314884 108.150974,16.0634381 112.63,16.0634381 C117.109026,16.0634381 120.823282,19.5314884 121.13,24 L121.13,24 C120.823282,28.4685116 117.109026,31.9365619 112.63,31.9365619 C108.150974,31.9365619 104.436718,28.4685116 104.13,24 Z M118.13,24 L118.13,24 C118.18964,22.4892732 117.633695,21.0190093 116.589403,19.9257079 C115.545112,18.8324065 114.101873,18.2096613 112.59,18.2 C111.088679,18.2011779 109.653092,18.8160276 108.616331,19.9018881 C107.57957,20.9877486 107.031758,22.4502304 107.1,23.95 L107.1,23.95 C107.043027,25.4571764 107.600805,26.9228303 108.645396,28.0107894 C109.689988,29.0987486 111.131753,29.7156511 112.64,29.72 C114.143709,29.7322787 115.586633,29.1272144 116.631844,28.0460921 C117.677055,26.9649698 118.233049,25.5024367 118.17,24 L118.13,24 Z" id="Shape" fill="#FFFFFF" fill-rule="nonzero"></path>
                        <path d="M77.56,30.87 C77.5600841,30.1597683 76.9901476,29.5809266 76.28,29.57 L68.11,29.57 L68.11,25.14 L75.67,25.14 C76.0180547,25.1536064 76.356623,25.0247805 76.6075952,24.7832434 C76.8585673,24.5417063 77.0002659,24.2083204 77,23.86 C77.0056517,23.1441792 76.4356559,22.556371 75.72,22.54 L68.11,22.54 L68.11,18.24 L77.44,18.24 L77.44,16.92 L77.44,16.92 C77.429274,16.2175664 76.8624336,15.650726 76.16,15.64 L65.25,15.64 L65.25,30.7 C65.2418867,31.0861712 65.390338,31.4592008 65.6615725,31.7342025 C65.932807,32.0092041 66.3037536,32.1627863 66.69,32.16 L77.56,32.16 L77.56,30.87 Z" id="Shape" fill="#FFFFFF" fill-rule="nonzero"></path>
                        <path d="M61.06,30.71 L61.06,17 C61.06,16.2212785 60.4287215,15.59 59.65,15.59 C58.8712785,15.59 58.24,16.2212785 58.24,17 L58.24,27 L50.09,16.51 C49.7764984,15.9936606 49.2237209,15.670267 48.62,15.65 L46.86,15.65 L46.86,17.1 L46.86,17.1 L46.86,30.78 C46.86,31.5587215 47.4912785,32.19 48.27,32.19 C49.0487215,32.19 49.68,31.5587215 49.68,30.78 L49.68,20.44 L58.06,31.29 C58.374322,31.8021068 58.9200158,32.1272804 59.52,32.16 L61.07,32.16 L61.07,30.71 L61.06,30.71 Z" id="Shape" fill="#FFFFFF" fill-rule="nonzero"></path>
                        <path d="M30.92,35.71 C30.92,35.71 28.82,35.76 27.87,35.76 C26.5277649,35.5307794 25.292284,34.8832894 24.34,33.91 C21.93,31.57 19.96,28.85 17.77,26.32 C17.4199802,25.8857997 16.984256,25.5283696 16.49,25.27 L16.49,32.45 C16.5228697,33.2613322 16.2835135,34.0603597 15.81,34.72 C15.5337331,35.0138655 15.1907166,35.2368263 14.81,35.37 C13.5145451,35.903444 12.0490592,35.8338335 10.81,35.18 C10.5244599,35.0244771 10.2533827,34.843759 10,34.64 C9.06,33.7 9.18,31.53 9.18,31.64 C9.18,30.87 9.18,19 9.18,12.05 L11.84,12.05 C13.4295424,11.9412609 14.983433,12.5547355 16.07,13.72 L23.79,22.11 C23.79,22.11 23.79,15.93 23.79,15.78 C23.7308536,14.3419384 24.5110074,13.0000738 25.79,12.34 C26.32061,12.079523 26.910106,11.9623132 27.5,12 L27.63,12 L27.78,12 L27.7,12 C29.5261325,12.1509613 30.9310236,13.6776386 30.93,15.51 C30.927861,15.543299 30.927861,15.576701 30.93,15.61 L30.92,35.71 Z" id="Shape" fill="#FFFFFF"></path>
                    </g>
                </g>
            </g>
        </g>
    </g>
</svg>