<?xml version="1.0" encoding="utf-8"?>
<!-- Generator: Adobe Illustrator 19.0.0, SVG Export Plug-In . SVG Version: 6.00 Build 0)  -->
<svg version="1.1" id="圖層_1" xmlns="http://www.w3.org/2000/svg" xmlns:xlink="http://www.w3.org/1999/xlink" x="0px" y="0px"
	 viewBox="-19 64 121 43" style="enable-background:new -19 64 121 43;" xml:space="preserve">
<style type="text/css">
	.st0{fill:#D80C18;}
	.st1{fill:#004098;}
	.st2{fill:#E60012;}
	.st3{fill:url(#Shape_21_);}
	.st4{fill:#4CB7C3;}
	.st5{fill:url(#Shape_22_);}
	.st6{fill:#F39800;}
	.st7{fill:#FFFFFF;}
</style>
<title>nexio-logo</title>
<desc>Created with Sketch.</desc>
<g id="NEXIO">
	<g id="_x30_.home" transform="translate(-359.000000, -30.000000)">
		<g id="banner_01" transform="translate(0.000000, -18.000000)">
			<g id="nexio-logo" transform="translate(358.000000, 48.000000)">
				<g id="logo-web">
					<path id="Shape" class="st0" d="M20.4,80.5c-0.2-2.5-1.6-4.2-4.3-5c-1.1,0.1-2.2,0.3-3.3,0.4c-1.1,0.1-2.2,0.2-3.2,0.2L8.8,76
						H8.7c1.8,0.2,3.2,1.7,3.2,3.5c0,0,0,0.1,0,0.1v20c0.1-0.3,0.1-0.7,0.2-1.2c0.3-2.1,0.8-4.1,1.5-6.1c1.2-2.5,4.6-5.3,4.6-5.3
						c0.3-0.7,0.6-1.5,1-2.2l0,0C20.1,83.5,20.5,82,20.4,80.5L20.4,80.5z"/>
					<path id="Shape_1_" class="st1" d="M-16.4,93c1.7,1.9,3.7,3.5,5.8,4.9c0.5,0.3,1.1,0.6,1.7,0.7c-0.9-0.9-0.8-3.1-0.8-3
						c0-1.1,0-24.6,0-24.6c-2.3,2.9-3.2,6.3-4.4,9.6c-0.3,1.2-0.9,2.3-1.8,3.2c-0.4,0.4-0.8,0.9-1.2,1.4c-0.7,1.2-1,2.6-0.9,4
						C-17.9,90.6-17.4,92-16.4,93z"/>
					<path id="Shape_2_" class="st2" d="M9.6,103.7c0.2-0.2,0.4-0.4,0.6-0.7C10.1,103.3,9.9,103.5,9.6,103.7L9.6,103.7z"/>
					<path id="Shape_3_" class="st2" d="M6.4,105.8l0.6-0.3L6.4,105.8z"/>
					<polygon id="Shape_4_" class="st2" points="10.6,102.7 10.4,102.9 10.4,102.9 10.4,102.9 					"/>
					<path id="Shape_5_" class="st2" d="M7.7,105.1l-0.5,0.3L7.7,105.1z"/>
					<path id="Shape_6_" class="st1" d="M5.9,105.3l-0.4-0.4l-0.1-0.1l-1.2-1.2l0,0l-0.9-0.8l-0.2-0.2l-0.9-0.8l-0.1-0.1l-0.2-0.2
						l-0.3-0.2l-0.1-0.1L1,100.8l0,0l-0.2-0.2l-0.2-0.2l-0.1-0.1l-0.2-0.1l-0.1-0.1L0,100.1l-0.3-0.2c-1.1-0.7-2.5-0.9-3.8-0.5
						c-1.5,0.6-3.2,0.4-4.5-0.5c0.3,0.3,2.5,2.5,2.6,2.6c0.4,0.4,0.8,0.8,1.1,1.2c1.8,2.2,4.5,3.5,7.3,3.5l0,0
						c1.4,0.1,2.8,0,4.1-0.4L6,105.4L5.9,105.3z"/>
					<path id="Shape_7_" class="st2" d="M9.2,104.1l-0.4,0.3L9.2,104.1z"/>
					<path id="Shape_8_" class="st2" d="M9.6,103.7l-0.4,0.3L9.6,103.7z"/>
					<path id="Shape_9_" class="st2" d="M8.8,104.4l-0.4,0.3L8.8,104.4z"/>
					<path id="Shape_10_" class="st2" d="M8.2,104.8l-0.5,0.3L8.2,104.8z"/>
					
						<linearGradient id="Shape_21_" gradientUnits="userSpaceOnUse" x1="-34.8887" y1="166.3025" x2="-35.3908" y2="166.6389" gradientTransform="matrix(16.11 0 0 -16.56 572.84 2858.0398)">
						<stop  offset="0" style="stop-color:#2F87AA"/>
						<stop  offset="1" style="stop-color:#00A6BA"/>
					</linearGradient>
					<path id="Shape_11_" class="st3" d="M10.4,102.9L10.4,102.9c0.7-1,1.3-2.1,1.5-3.2c0,0-2.1,0.1-3,0.1c-1.3-0.2-2.6-0.9-3.5-1.9
						c-2.4-2.3-4.4-5.1-6.6-7.6c-0.4-0.4-0.8-0.8-1.3-1.1v7.2c0,0.8-0.2,1.6-0.7,2.3c-0.3,0.3-0.6,0.5-1,0.7
						c1.3-0.4,2.7-0.2,3.8,0.5c1.7,1.1,3.2,2.4,4.6,3.8l1.2,1.2l0.1,0.1l0.4,0.4l0.1,0.1l0.4,0.4C7.8,105.2,9.2,104.2,10.4,102.9
						L10.4,102.9L10.4,102.9z"/>
					<path id="Shape_12_" class="st4" d="M18.3,87c-0.2,0.1-3.5,2.9-4.6,5.4c-0.7,1.9-1.2,3.9-1.5,5.9c0,0.1,0,0.2,0,0.2
						C12.1,99,12,99.4,12,99.7c-0.2,1.1-0.7,2.1-1.4,3l-0.2,0.3l-0.1,0.1c-0.2,0.2-0.4,0.5-0.6,0.7l0,0l-0.4,0.3l0,0l-0.4,0.3h0
						l-0.4,0.3l-0.1,0.1l-0.5,0.3H7.8l-0.5,0.3L7,105.5l-0.6,0.3c0.9,0.5,1.8,0.9,2.8,1c0.3,0.1,0.7,0.1,1,0.1h0.3
						c1.8,0,3.5-0.8,4.8-2.1c1.2-1.3,1.9-3.1,1.8-4.9c0-2.1-0.2-4.3-0.4-6.4c-0.1-1.9,0.2-3.8,1.1-5.5C17.9,87.7,18.1,87.4,18.3,87z
						"/>
					
						<linearGradient id="Shape_22_" gradientUnits="userSpaceOnUse" x1="-36.1371" y1="167.1466" x2="-34.9648" y2="166.5944" gradientTransform="matrix(18.46 0 0 -17.06 654.1899 2923.4001)">
						<stop  offset="0" style="stop-color:#F39800"/>
						<stop  offset="1" style="stop-color:#E60012"/>
					</linearGradient>
					<path id="Shape_13_" class="st5" d="M6.9,75.7H6.7l-0.4-0.1L6,75.4l-0.3-0.1l-0.3-0.2L5.1,75l-0.4-0.2l-0.2-0.1
						c-0.2-0.1-0.4-0.2-0.6-0.4c-1-0.7-2-1.5-3-2.3c-1.7-1.7-3.8-2.7-6.2-2.9c-0.2,0-0.5,0-0.7,0c-1.2,0.1-2.2,0.5-3.8,2
						c0,0,0,2.1,0,5h2.7c1.6-0.1,3.1,0.5,4.2,1.7l7.7,8.4c0,0,0-6.2,0-6.3c-0.1-1.4,0.7-2.8,2-3.4C7.3,76.1,7.9,76,8.5,76h0.1
						C8,75.9,7.4,75.8,6.9,75.7z"/>
					<path id="Shape_14_" class="st6" d="M5.9,69.1c-1.6-1.7-3.6-3-5.8-3.7c-1.7-0.6-3.7-0.6-5.4,0.2c-1.7,0.8-3,2.2-3.6,3.9l0,0
						l0,0c-0.2,0.5-0.5,1-0.8,1.4l-0.1,0.1c1.6-1.4,2.6-1.9,3.8-2c0.2,0,0.5,0,0.7,0c2.3,0.2,4.5,1.2,6.2,2.9c1,0.7,2,1.5,3,2.3
						c1.7,1.2,3.7,1.8,5.7,1.9c1.1,0,2.2-0.1,3.2-0.2c1.1-0.1,2.2-0.3,3.3-0.4C12.2,74.4,8.6,72.1,5.9,69.1L5.9,69.1z"/>
					<path id="Shape_15_" class="st1" d="M61.4,93.8l4.8-6l-4.6-5.7c-0.3-0.3-0.4-0.7-0.4-1.1c0-0.4,0.1-0.7,0.4-1
						c0.3-0.3,0.6-0.4,1-0.4c0.5,0,1,0.3,1.3,0.7l4.1,5.4l4.1-5.3c0.3-0.5,0.8-0.8,1.4-0.8c0.7,0,1.3,0.6,1.3,1.3
						c0,0.4-0.2,0.8-0.4,1.1l-4.6,5.7l4.8,6c0.3,0.3,0.4,0.7,0.4,1.1c0,0.4-0.1,0.7-0.4,1c-0.3,0.3-0.6,0.4-1,0.4
						c-0.5,0-1-0.3-1.3-0.7L68,89.8l-4.3,5.6c-0.3,0.5-0.8,0.8-1.4,0.8c-0.3,0-0.7-0.1-0.9-0.4c-0.2-0.2-0.4-0.6-0.4-0.9
						C61,94.5,61.2,94.1,61.4,93.8L61.4,93.8z"/>
					<path id="Shape_16_" class="st1" d="M78.6,81.1c0-0.8,0.6-1.4,1.4-1.4s1.4,0.6,1.4,1.4v13.7c0,0.8-0.6,1.4-1.4,1.4
						s-1.4-0.6-1.4-1.4V81.1z"/>
					<path id="Shape_17_" class="st1" d="M85.1,88L85.1,88c0.3-4.5,4-7.9,8.5-7.9s8.2,3.5,8.5,7.9l0,0c-0.3,4.5-4,7.9-8.5,7.9
						S85.4,92.5,85.1,88z M99.1,88L99.1,88c0.1-1.5-0.5-3-1.5-4.1c-1-1.1-2.5-1.7-4-1.7c-1.5,0-2.9,0.6-4,1.7c-1,1.1-1.6,2.5-1.5,4
						l0,0c-0.1,1.5,0.5,3,1.5,4.1c1,1.1,2.5,1.7,4,1.7c1.5,0,2.9-0.6,4-1.7C98.7,91,99.2,89.5,99.1,88L99.1,88z"/>
					<path id="Shape_18_" class="st1" d="M58.6,94.9c0-0.7-0.6-1.3-1.3-1.3h-8.2v-4.4h7.6c0.3,0,0.7-0.1,0.9-0.4
						c0.3-0.2,0.4-0.6,0.4-0.9c0-0.7-0.6-1.3-1.3-1.3h-7.6v-4.3h9.3v-1.3l0,0c0-0.7-0.6-1.3-1.3-1.3H46.2v15.1c0,0.4,0.1,0.8,0.4,1
						c0.3,0.3,0.6,0.4,1,0.4h10.9V94.9z"/>
					<path id="Shape_19_" class="st1" d="M42.1,94.7V81c0-0.8-0.6-1.4-1.4-1.4c-0.8,0-1.4,0.6-1.4,1.4v10l-8.2-10.5
						c-0.3-0.5-0.9-0.8-1.5-0.9h-1.8v1.4l0,0v13.7c0,0.8,0.6,1.4,1.4,1.4s1.4-0.6,1.4-1.4V84.4l8.4,10.8c0.3,0.5,0.9,0.8,1.5,0.9
						h1.5L42.1,94.7L42.1,94.7z"/>
					<path id="Shape_20_" class="st7" d="M11.9,99.7c0,0-2.1,0-3,0c-1.3-0.2-2.6-0.9-3.5-1.8c-2.4-2.3-4.4-5.1-6.6-7.6
						c-0.4-0.4-0.8-0.8-1.3-1v7.2c0,0.8-0.2,1.6-0.7,2.3c-0.3,0.3-0.6,0.5-1,0.6c-1.3,0.5-2.8,0.5-4-0.2C-8.5,99-8.7,98.8-9,98.6
						c-0.9-0.9-0.8-3.1-0.8-3c0-0.8,0-12.6,0-19.6h2.7c1.6-0.1,3.1,0.5,4.2,1.7l7.7,8.4c0,0,0-6.2,0-6.3c-0.1-1.4,0.7-2.8,2-3.4
						C7.3,76.1,7.9,76,8.5,76h0.1h0.2H8.7c1.8,0.2,3.2,1.7,3.2,3.5c0,0,0,0.1,0,0.1L11.9,99.7z"/>
				</g>
			</g>
		</g>
	</g>
</g>
</svg>
