<?xml version="1.0" encoding="UTF-8" standalone="no"?>
<svg
   xmlns:dc="http://purl.org/dc/elements/1.1/"
   xmlns:cc="http://creativecommons.org/ns#"
   xmlns:rdf="http://www.w3.org/1999/02/22-rdf-syntax-ns#"
   xmlns:svg="http://www.w3.org/2000/svg"
   xmlns="http://www.w3.org/2000/svg"
   viewBox="0 0 151.25 53.75"
   height="53.75"
   width="151.25"
   xml:space="preserve"
   version="1.1"
   id="svg2"><metadata
     id="metadata8"><rdf:RDF><cc:Work
         rdf:about=""><dc:format>image/svg+xml</dc:format><dc:type
           rdf:resource="http://purl.org/dc/dcmitype/StillImage" /></cc:Work></rdf:RDF></metadata><defs
     id="defs6"><clipPath
       id="clipPath16"
       clipPathUnits="userSpaceOnUse"><path
         id="path18"
         d="M 0,43 121,43 121,0 0,0 0,43 Z" /></clipPath><clipPath
       id="clipPath92"
       clipPathUnits="userSpaceOnUse"><path
         id="path94"
         d="m 15.606,10.939 c 0,-1.007 -0.333,-1.925 -0.685,-2.292 l 0,0 C 14.694,8.409 14.429,8.211 14.112,8.068 l 0,0 C 15.373,8.527 16.651,8 17.728,7.499 l 0,0 C 18.559,7.114 20.633,5.298 22.36,3.665 l 0,0 c 0.435,-0.412 0.847,-0.813 1.213,-1.176 l 0,0 c 0.022,-0.022 0.043,-0.044 0.066,-0.066 l 0,0 c 0.144,-0.144 0.277,-0.278 0.404,-0.409 l 0,0 c 0.036,-0.037 0.072,-0.075 0.108,-0.11 l 0,0 c 0.139,-0.145 0.27,-0.283 0.38,-0.402 l 0,0 c 2.035,0.974 3.184,1.893 3.952,2.822 l 0,0 c 0.004,0.004 0.007,0.006 0.011,0.009 l 0,0 c 0.018,0.021 0.035,0.046 0.053,0.067 l 0,0 c 0.015,0.019 0.03,0.037 0.044,0.056 l 0,0 c 0.664,0.814 1.293,2.047 1.539,3.201 l 0,0 c 0,0 -2.111,-0.052 -3.075,-0.052 l 0,0 c -0.964,0 -2.561,0.901 -3.551,1.859 l 0,0 c -2.426,2.355 -4.405,5.098 -6.615,7.644 l 0,0 c -0.314,0.364 -0.767,0.824 -1.29,1.061 l 0,0 0.007,-7.23 z M 13.927,7.994 c 0.063,0.023 0.125,0.048 0.185,0.074 l 0,0 C 14.05,8.046 13.988,8.021 13.927,7.994" /></clipPath><linearGradient
       id="linearGradient100"
       spreadMethod="pad"
       gradientTransform="matrix(-8.152669,5.6014938,5.6014938,8.152669,29.011593,3.313786)"
       gradientUnits="userSpaceOnUse"
       y2="0"
       x2="1"
       y1="0"
       x1="0"><stop
         id="stop102"
         offset="0"
         style="stop-opacity:1;stop-color:#2c86a9" /><stop
         id="stop104"
         offset="1"
         style="stop-opacity:1;stop-color:#00a5b9" /></linearGradient><clipPath
       id="clipPath112"
       clipPathUnits="userSpaceOnUse"><path
         id="path114"
         d="M 0,43 121,43 121,0 0,0 0,43 Z" /></clipPath><linearGradient
       id="linearGradient132"
       spreadMethod="pad"
       gradientTransform="matrix(21.790758,-9.4814749,-9.4814749,-21.790758,5.1657667,35.742775)"
       gradientUnits="userSpaceOnUse"
       y2="0"
       x2="1"
       y1="0"
       x1="0"><stop
         id="stop134"
         offset="0"
         style="stop-opacity:1;stop-color:#f29600" /><stop
         id="stop136"
         offset="1"
         style="stop-opacity:1;stop-color:#e50012" /></linearGradient><clipPath
       id="clipPath144"
       clipPathUnits="userSpaceOnUse"><path
         id="path146"
         d="M 0,43 121,43 121,0 0,0 0,43 Z" /></clipPath></defs><g
     transform="matrix(1.25,0,0,-1.25,0,53.75)"
     id="g10"><g
       id="g12"><g
         clip-path="url(#clipPath16)"
         id="g14"><g
           transform="translate(79.9775,13.6346)"
           id="g20"><path
             id="path22"
             style="fill:#004097;fill-opacity:1;fill-rule:nonzero;stroke:none"
             d="m 0,0 4.875,6.047 -4.593,5.695 c -0.235,0.305 -0.446,0.679 -0.446,1.078 0,0.797 0.609,1.407 1.431,1.407 0.608,0 0.961,-0.234 1.312,-0.703 l 4.149,-5.461 4.101,5.366 c 0.375,0.516 0.774,0.798 1.406,0.798 0.633,0 1.312,-0.516 1.312,-1.313 0,-0.421 -0.163,-0.75 -0.444,-1.102 L 8.508,6.094 13.337,0.07 c 0.234,-0.304 0.445,-0.657 0.445,-1.078 0,-0.797 -0.609,-1.406 -1.429,-1.406 -0.61,0 -0.961,0.233 -1.314,0.702 L 6.634,4.031 2.298,-1.618 c -0.4,-0.516 -0.775,-0.796 -1.407,-0.796 -0.656,0 -1.312,0.516 -1.312,1.335 0,0.398 0.164,0.727 0.421,1.079" /></g><g
           transform="translate(97.3037,26.431)"
           id="g24"><path
             id="path26"
             style="fill:#004097;fill-opacity:1;fill-rule:nonzero;stroke:none"
             d="m 0,0 c 0,0.797 0.633,1.43 1.452,1.43 0.797,0 1.43,-0.633 1.43,-1.43 l 0,-13.781 c 0,-0.797 -0.633,-1.429 -1.43,-1.429 C 0.633,-15.21 0,-14.578 0,-13.781 L 0,0 Z" /></g><g
           transform="translate(117.9766,19.4931)"
           id="g28"><path
             id="path30"
             style="fill:#004097;fill-opacity:1;fill-rule:nonzero;stroke:none"
             d="m 0,0 0,0.047 c 0,3.188 -2.32,5.837 -5.578,5.837 -3.259,0 -5.531,-2.602 -5.531,-5.79 l 0,-0.047 c 0,-3.187 2.319,-5.812 5.578,-5.812 C -2.274,-5.765 0,-3.187 0,0 m -14.133,0 0,0.047 c 0,4.619 3.563,8.485 8.602,8.485 5.039,0 8.554,-3.82 8.554,-8.438 l 0,-0.047 c 0,-4.616 -3.562,-8.485 -8.601,-8.485 -5.039,0 -8.555,3.822 -8.555,8.438" /></g><g
           transform="translate(77.0918,12.5341)"
           id="g32"><path
             id="path34"
             style="fill:#004097;fill-opacity:1;fill-rule:nonzero;stroke:none"
             d="m 0,0 c 0,0.713 -0.586,1.307 -1.289,1.307 l -8.227,0 0,4.467 7.614,0 c 0.704,0 1.29,0.571 1.29,1.283 0,0.737 -0.586,1.331 -1.29,1.331 l -7.614,0 0,4.325 9.398,0.006 0,1.323 -0.003,0 c -0.014,0.704 -0.59,1.285 -1.285,1.285 l -10.992,0 0,-15.161 c 0,-0.832 0.631,-1.474 1.453,-1.474 L 0,-1.308 0,0 Z" /></g><g
           transform="translate(60.4712,12.6923)"
           id="g36"><path
             id="path38"
             style="fill:#004097;fill-opacity:1;fill-rule:nonzero;stroke:none"
             d="m 0,0 0,13.762 c 0,0.774 -0.633,1.407 -1.43,1.407 -0.774,0 -1.406,-0.633 -1.406,-1.407 l 0,-10.077 -8.203,10.616 c -0.399,0.492 -0.777,0.865 -1.48,0.865 l -0.003,0 0,0.003 -1.776,0 0,-1.465 0.003,0 c 0,-0.004 -0.003,-0.008 -0.003,-0.012 l 0,-13.757 c 0,-0.774 0.633,-1.407 1.43,-1.407 0.774,0 1.407,0.633 1.407,1.407 l 0,10.405 8.438,-10.921 c 0.391,-0.507 0.807,-0.867 1.467,-0.88 l 0,-0.005 0.033,0 0.116,0 1.407,0 L 0,0 Z" /></g><g
           transform="translate(30.1304,7.6571)"
           id="g40"><path
             id="path42"
             style="fill:#ffffff;fill-opacity:1;fill-rule:evenodd;stroke:none"
             d="m 0,0 c 0,0 -2.111,-0.052 -3.075,-0.052 -0.965,0 -2.561,0.901 -3.551,1.86 -2.426,2.354 -4.405,5.097 -6.615,7.643 -0.314,0.363 -0.768,0.823 -1.29,1.061 l 0.007,-7.231 c 0,-1.006 -0.333,-1.924 -0.685,-2.291 -0.27,-0.283 -0.594,-0.51 -0.995,-0.653 -1.608,-0.712 -3.141,-0.216 -3.982,0.186 -0.004,0.001 -0.584,0.32 -0.836,0.556 -0.943,0.942 -0.827,3.132 -0.827,2.973 -0.001,0.775 -0.008,12.728 -0.013,19.73 l 2.681,0.025 c 1.713,0.137 3.071,-0.543 4.255,-1.677 l 7.774,-8.446 c 0,0 0.02,6.226 0.024,6.376 0.156,1.951 0.846,2.819 2.038,3.467 0.528,0.253 0.965,0.321 1.641,0.321 0.038,0 0.081,-0.01 0.122,-0.013 10e-4,10e-4 0.003,0.002 0.004,0.004 0.05,-0.006 0.099,-0.015 0.148,-0.02 l -0.071,0.001 c 1.82,-0.153 3.252,-1.67 3.252,-3.539 0,-0.033 0.012,-0.1 0.012,-0.1 L 0,0 Z" /></g><g
           transform="translate(38.6865,27.0453)"
           id="g44"><path
             id="path46"
             style="fill:#d70c18;fill-opacity:1;fill-rule:evenodd;stroke:none"
             d="M 0,0 C -0.171,2.565 -1.605,4.183 -4.378,4.987 -5.479,4.852 -6.571,4.702 -7.674,4.59 -8.765,4.48 -9.84,4.333 -10.94,4.373 c -0.263,0.01 -0.527,0.029 -0.791,0.058 l -0.071,0.001 c 1.82,-0.153 3.252,-1.67 3.252,-3.539 0,-0.033 0.012,-0.1 0.012,-0.1 l -0.018,-20.181 c 0.056,0.298 0.117,0.703 0.189,1.178 0.125,0.695 0.683,4.277 1.546,6.155 1.183,2.573 4.673,5.472 4.673,5.472 0.291,0.853 0.975,2.219 0.975,2.219 l -0.012,0.002 C -0.526,-2.982 0.183,-1.617 0,0" /></g><g
           transform="translate(1.5854,14.3768)"
           id="g48"><path
             id="path50"
             style="fill:#004097;fill-opacity:1;fill-rule:evenodd;stroke:none"
             d="M 0,0 C 1.744,-1.923 3.713,-3.486 5.837,-4.933 6.214,-5.153 6.813,-5.509 7.523,-5.641 6.58,-4.698 6.696,-2.509 6.696,-2.668 6.694,-1.566 6.68,22.072 6.68,22.072 4.37,19.251 3.456,15.797 2.275,12.461 1.846,11.264 1.402,10.152 0.515,9.265 0.069,8.821 -0.239,8.421 -0.668,7.855 -1.463,6.634 -1.55,5.249 -1.585,3.854 -1.529,2.374 -0.975,1.076 0,0" /></g><g
           transform="translate(27.8359,3.6356)"
           id="g52"><path
             id="path54"
             style="fill:#e50012;fill-opacity:1;fill-rule:evenodd;stroke:none"
             d="M 0,0 C 0.244,0.229 0.457,0.458 0.647,0.687 0.457,0.458 0.244,0.229 0,0" /></g><g
           transform="translate(24.5317,1.5018)"
           id="g56"><path
             id="path58"
             style="fill:#e50012;fill-opacity:1;fill-rule:evenodd;stroke:none"
             d="M 0,0 C 0.228,0.109 0.44,0.217 0.647,0.324 0.44,0.217 0.228,0.109 0,0" /></g><g
           transform="translate(28.7588,4.6757)"
           id="g60"><path
             id="path62"
             style="fill:#e50012;fill-opacity:1;fill-rule:evenodd;stroke:none"
             d="M 0,0 C -0.056,-0.074 -0.111,-0.15 -0.167,-0.22 -0.182,-0.238 -0.197,-0.257 -0.212,-0.275 -0.138,-0.184 -0.067,-0.092 0,0" /></g><g
           transform="translate(25.8467,2.1932)"
           id="g64"><path
             id="path66"
             style="fill:#e50012;fill-opacity:1;fill-rule:evenodd;stroke:none"
             d="M 0,0 C -0.162,-0.094 -0.333,-0.188 -0.511,-0.283 -0.333,-0.188 -0.162,-0.094 0,0" /></g><g
           transform="translate(24.0425,2.0145)"
           id="g68"><path
             id="path70"
             style="fill:#004097;fill-opacity:1;fill-rule:evenodd;stroke:none"
             d="M 0,0 C -0.126,0.13 -0.26,0.265 -0.404,0.408 -0.426,0.431 -0.447,0.452 -0.47,0.475 -0.835,0.838 -1.248,1.238 -1.683,1.65 -1.685,1.651 -1.686,1.653 -1.687,1.654 -1.973,1.924 -2.269,2.198 -2.565,2.471 -2.627,2.527 -2.688,2.584 -2.75,2.64 -3.049,2.912 -3.35,3.183 -3.643,3.439 -3.677,3.47 -3.71,3.498 -3.744,3.527 -3.829,3.603 -3.911,3.672 -3.995,3.744 -4.083,3.819 -4.171,3.896 -4.257,3.969 -4.294,4.001 -4.333,4.033 -4.369,4.064 -4.564,4.229 -4.754,4.385 -4.935,4.529 -4.943,4.535 -4.95,4.541 -4.958,4.548 -5.042,4.614 -5.118,4.671 -5.197,4.731 -5.273,4.79 -5.352,4.854 -5.423,4.906 -5.469,4.94 -5.512,4.972 -5.556,5.003 c -0.056,0.041 -0.105,0.073 -0.157,0.11 -0.051,0.035 -0.105,0.074 -0.152,0.106 -0.04,0.026 -0.08,0.053 -0.117,0.077 -0.124,0.078 -0.238,0.145 -0.332,0.188 -1.129,0.526 -2.482,1.08 -3.802,0.495 -2.134,-0.944 -4.137,0.239 -4.566,0.505 0.305,-0.266 2.518,-2.502 2.649,-2.636 0.388,-0.386 0.751,-0.808 1.095,-1.225 1.969,-2.379 4.551,-3.411 7.32,-3.538 0,0 0,0 0,0 0.662,-0.048 3.223,-0.014 4.107,0.402 C 0.379,-0.394 0.248,-0.256 0.108,-0.11 0.073,-0.075 0.036,-0.037 0,0" /></g><g
           transform="translate(27.4243,3.2733)"
           id="g72"><path
             id="path74"
             style="fill:#e50012;fill-opacity:1;fill-rule:evenodd;stroke:none"
             d="M 0,0 C -0.134,-0.11 -0.276,-0.221 -0.427,-0.332 -0.276,-0.221 -0.134,-0.11 0,0" /></g><g
           transform="translate(27.814,3.6161)"
           id="g76"><path
             id="path78"
             style="fill:#e50012;fill-opacity:1;fill-rule:evenodd;stroke:none"
             d="M 0,0 C -0.115,-0.107 -0.237,-0.216 -0.367,-0.323 -0.237,-0.216 -0.115,-0.107 0,0" /></g><g
           transform="translate(26.9453,2.9032)"
           id="g80"><path
             id="path82"
             style="fill:#e50012;fill-opacity:1;fill-rule:evenodd;stroke:none"
             d="M 0,0 C -0.132,-0.096 -0.271,-0.191 -0.417,-0.288 -0.271,-0.191 -0.132,-0.096 0,0" /></g><g
           transform="translate(26.436,2.5546)"
           id="g84"><path
             id="path86"
             style="fill:#e50012;fill-opacity:1;fill-rule:evenodd;stroke:none"
             d="M 0,0 C -0.165,-0.107 -0.338,-0.215 -0.522,-0.323 -0.338,-0.215 -0.166,-0.107 0,0" /></g></g></g><g
       id="g88"><g
         clip-path="url(#clipPath92)"
         id="g90"><g
           id="g96"><g
             id="g98"><path
               id="path106"
               style="fill:url(#linearGradient100);stroke:none"
               d="m 15.606,10.939 c 0,-1.007 -0.333,-1.925 -0.685,-2.292 l 0,0 C 14.694,8.409 14.429,8.211 14.112,8.068 l 0,0 C 15.373,8.527 16.651,8 17.728,7.499 l 0,0 C 18.559,7.114 20.633,5.298 22.36,3.665 l 0,0 c 0.435,-0.412 0.847,-0.813 1.213,-1.176 l 0,0 c 0.022,-0.022 0.043,-0.044 0.066,-0.066 l 0,0 c 0.144,-0.144 0.277,-0.278 0.404,-0.409 l 0,0 c 0.036,-0.037 0.072,-0.075 0.108,-0.11 l 0,0 c 0.139,-0.145 0.27,-0.283 0.38,-0.402 l 0,0 c 2.035,0.974 3.184,1.893 3.952,2.822 l 0,0 c 0.004,0.004 0.007,0.006 0.011,0.009 l 0,0 c 0.018,0.021 0.035,0.046 0.053,0.067 l 0,0 c 0.015,0.019 0.03,0.037 0.044,0.056 l 0,0 c 0.664,0.814 1.293,2.047 1.539,3.201 l 0,0 c 0,0 -2.111,-0.052 -3.075,-0.052 l 0,0 c -0.964,0 -2.561,0.901 -3.551,1.859 l 0,0 c -2.426,2.355 -4.405,5.098 -6.615,7.644 l 0,0 c -0.314,0.364 -0.767,0.824 -1.29,1.061 l 0,0 0.007,-7.23 z M 13.927,7.994 c 0.063,0.023 0.125,0.048 0.185,0.074 l 0,0 C 14.05,8.046 13.988,8.021 13.927,7.994" /></g></g></g></g><g
       id="g108"><g
         clip-path="url(#clipPath112)"
         id="g110"><g
           transform="translate(36.522,20.4491)"
           id="g116"><path
             id="path118"
             style="fill:#4bb6c2;fill-opacity:1;fill-rule:evenodd;stroke:none"
             d="m 0,0 c -0.17,-0.142 -3.503,-2.951 -4.657,-5.459 -0.791,-1.723 -1.325,-4.873 -1.505,-5.92 -0.005,-0.078 -0.017,-0.155 -0.041,-0.235 -0.071,-0.475 -0.132,-0.88 -0.189,-1.178 -0.225,-1.055 -0.772,-2.174 -1.371,-2.981 -0.068,-0.092 -0.138,-0.184 -0.212,-0.276 -0.018,-0.021 -0.035,-0.046 -0.064,-0.077 -0.19,-0.229 -0.403,-0.458 -0.647,-0.687 -0.007,-0.007 -0.015,-0.014 -0.022,-0.02 -0.115,-0.107 -0.237,-0.216 -0.367,-0.323 -0.008,-0.007 -0.015,-0.013 -0.023,-0.02 -0.133,-0.11 -0.276,-0.22 -0.426,-0.332 -0.018,-0.013 -0.036,-0.025 -0.053,-0.038 -0.131,-0.096 -0.271,-0.191 -0.417,-0.288 -0.03,-0.021 -0.061,-0.04 -0.092,-0.061 -0.165,-0.107 -0.338,-0.214 -0.522,-0.323 -0.021,-0.012 -0.045,-0.025 -0.067,-0.038 -0.162,-0.094 -0.334,-0.188 -0.512,-0.283 -0.051,-0.028 -0.103,-0.056 -0.156,-0.084 -0.207,-0.107 -0.42,-0.215 -0.647,-0.324 0.682,-0.533 1.856,-0.852 2.835,-1.003 0.32,-0.053 0.646,-0.088 0.97,-0.101 0.039,-0.002 0.078,-0.004 0.116,-0.005 0.029,0 0.066,-0.004 0.094,-0.004 0.056,0 0.098,0.005 0.132,0.013 3.665,0.051 6.614,2.902 6.565,7.059 -0.025,2.157 -0.21,4.316 -0.35,6.472 -0.127,1.948 0.236,3.781 1.104,5.534 C -0.398,-0.729 -0.177,-0.372 0,0" /></g></g></g><g
       id="g120"><g
         id="g122"><g
           id="g128"><g
             id="g130"><path
               id="path138"
               style="fill:url(#linearGradient132);stroke:none"
               d="M 12.092,38.439 C 10.833,38.34 9.931,37.906 8.266,36.448 l 0,0 c 0,0 0,-2.072 0.002,-5.009 l 0,0 2.681,0.025 c 1.714,0.137 3.071,-0.543 4.255,-1.677 l 0,0 7.774,-8.446 c 0,0 0.021,6.226 0.024,6.376 l 0,0 c 0.156,1.952 0.846,2.819 2.039,3.467 l 0,0 c 0.527,0.253 0.964,0.321 1.64,0.321 l 0,0 c 0.039,0 0.081,-0.01 0.122,-0.013 l 0,0 c 0.002,0.002 0.004,0.003 0.004,0.004 l 0,0 c -0.593,0.071 -1.183,0.189 -1.761,0.355 l 0,0 c -0.058,0.016 -0.115,0.031 -0.172,0.048 l 0,0 c -0.136,0.041 -0.269,0.087 -0.402,0.134 l 0,0 c -0.096,0.033 -0.192,0.066 -0.286,0.102 l 0,0 c -0.115,0.045 -0.229,0.091 -0.341,0.139 l 0,0 c -0.114,0.049 -0.226,0.099 -0.338,0.151 l 0,0 c -0.097,0.046 -0.194,0.091 -0.289,0.141 l 0,0 c -0.133,0.067 -0.263,0.14 -0.392,0.215 l 0,0 c -0.074,0.042 -0.149,0.082 -0.22,0.126 l 0,0 c -0.201,0.123 -0.398,0.253 -0.588,0.392 l 0,0 c -1.001,0.735 -1.985,1.545 -2.975,2.291 l 0,0 c -1.813,1.581 -3.731,2.779 -6.216,2.878 l 0,0 c -0.032,0 -0.063,10e-4 -0.095,10e-4 l 0,0 c -0.214,0 -0.427,-0.015 -0.64,-0.03" /></g></g></g></g><g
       id="g140"><g
         clip-path="url(#clipPath144)"
         id="g142"><g
           transform="translate(24.0801,38.5136)"
           id="g148"><path
             id="path150"
             style="fill:#f29600;fill-opacity:1;fill-rule:evenodd;stroke:none"
             d="m 0,0 c -1.574,1.722 -3.605,2.932 -5.855,3.687 -3.766,1.265 -7.554,-0.479 -9.015,-4.166 0.005,0.012 0.011,0.022 0.015,0.033 0.001,0.002 0.001,0.004 0.002,0.006 -10e-4,-0.001 -0.002,-0.001 -0.004,-0.001 -0.095,-0.33 -0.674,-1.334 -0.852,-1.497 -0.033,-0.044 -0.071,-0.084 -0.105,-0.127 1.665,1.458 2.567,1.891 3.827,1.99 0.243,0.018 0.487,0.034 0.734,0.029 2.485,-0.099 4.402,-1.297 6.216,-2.878 0.99,-0.746 1.974,-1.555 2.975,-2.29 1.638,-1.202 3.713,-1.807 5.729,-1.881 1.1,-0.041 2.175,0.107 3.265,0.217 1.103,0.111 2.196,0.262 3.297,0.397 C 6.243,-5.307 2.813,-3.083 0,0" /></g></g></g></g></svg>